<svg width="16" height="16" viewBox="0 0 16 16" fill="none" xmlns="http://www.w3.org/2000/svg">
<path d="M8 0.867188C3.86 0.867188 0.5 4.22719 0.5 8.36719C0.5 12.5072 3.86 15.8672 8 15.8672C12.14 15.8672 15.5 12.5072 15.5 8.36719C15.5 4.22719 12.14 0.867188 8 0.867188ZM8 14.3672C4.6925 14.3672 2 11.6747 2 8.36719C2 5.05969 4.6925 2.36719 8 2.36719C11.3075 2.36719 14 5.05969 14 8.36719C14 11.6747 11.3075 14.3672 8 14.3672ZM11.4425 5.05219L6.5 9.99469L4.5575 8.05969L3.5 9.11719L6.5 12.1172L12.5 6.11719L11.4425 5.05219Z" fill="#212121"/>
</svg>
