<svg width="42" height="42" viewBox="0 0 42 42" fill="none" xmlns="http://www.w3.org/2000/svg">
<rect width="42" height="42" rx="17.6667" fill="#292925" fill-opacity="0.1"/>
<path d="M15.2983 20.5748C15.2375 21.7382 15.3075 22.9765 14.2683 23.7557C14.0294 23.9344 13.8356 24.1665 13.7022 24.4335C13.5688 24.7004 13.4995 24.9948 13.5 25.2932C13.5 26.124 14.1517 26.8323 15 26.8323H27C27.8483 26.8323 28.5 26.124 28.5 25.2932C28.5 24.6882 28.215 24.1182 27.7317 23.7557C26.6925 22.9765 26.7625 21.7382 26.7017 20.5748C26.6267 19.1132 25.9933 17.7362 24.9322 16.7282C23.8712 15.7202 22.4635 15.1582 21 15.1582C19.5365 15.1582 18.1288 15.7202 17.0678 16.7282C16.0068 17.7362 15.3733 19.1132 15.2983 20.5748Z" stroke="#292925" stroke-width="1.25" stroke-linecap="round" stroke-linejoin="round"/>
<path d="M23.5 26.8327C23.5 27.4957 23.2366 28.1316 22.7678 28.6004C22.2989 29.0693 21.663 29.3327 21 29.3327C20.337 29.3327 19.7011 29.0693 19.2322 28.6004C18.7634 28.1316 18.5 27.4957 18.5 26.8327M19.75 13.6035C19.75 14.2935 20.31 15.166 21 15.166C21.69 15.166 22.25 14.2935 22.25 13.6035C22.25 12.9135 21.69 12.666 21 12.666C20.31 12.666 19.75 12.9135 19.75 13.6035Z" stroke="#292925" stroke-width="1.25" stroke-linecap="round" stroke-linejoin="round"/>
</svg>
