<svg width="24" height="25" viewBox="0 0 24 25" fill="none" xmlns="http://www.w3.org/2000/svg">
<path d="M8 6.12988C7.59 6.12988 7.25 5.78988 7.25 5.37988V2.37988C7.25 1.96988 7.59 1.62988 8 1.62988C8.41 1.62988 8.75 1.96988 8.75 2.37988V5.37988C8.75 5.78988 8.41 6.12988 8 6.12988Z" fill="#292D32"/>
<path d="M16 6.12988C15.59 6.12988 15.25 5.78988 15.25 5.37988V2.37988C15.25 1.96988 15.59 1.62988 16 1.62988C16.41 1.62988 16.75 1.96988 16.75 2.37988V5.37988C16.75 5.78988 16.41 6.12988 16 6.12988Z" fill="#292D32"/>
<path d="M15 23.1299H9C3.38 23.1299 2.25 20.4799 2.25 16.1999V10.0299C2.25 5.28988 3.85 3.35988 7.96 3.12988H16C16.01 3.12988 16.03 3.12988 16.04 3.12988C20.15 3.35988 21.75 5.28988 21.75 10.0299V16.1999C21.75 20.4799 20.62 23.1299 15 23.1299ZM8 4.62988C5.2 4.78988 3.75 5.66988 3.75 10.0299V16.1999C3.75 20.0299 4.48 21.6299 9 21.6299H15C19.52 21.6299 20.25 20.0299 20.25 16.1999V10.0299C20.25 5.67988 18.81 4.78988 15.98 4.62988H8Z" fill="#292D32"/>
<path d="M20.75 18.7305H3.25C2.84 18.7305 2.5 18.3905 2.5 17.9805C2.5 17.5705 2.84 17.2305 3.25 17.2305H20.75C21.16 17.2305 21.5 17.5705 21.5 17.9805C21.5 18.3905 21.16 18.7305 20.75 18.7305Z" fill="#292D32"/>
<path d="M12 8.62988C10.77 8.62988 9.73 9.29988 9.73 10.5999C9.73 11.2199 10.02 11.6899 10.46 11.9899C9.85 12.3499 9.5 12.9299 9.5 13.6099C9.5 14.8499 10.45 15.6199 12 15.6199C13.54 15.6199 14.5 14.8499 14.5 13.6099C14.5 12.9299 14.15 12.3399 13.53 11.9899C13.98 11.6799 14.26 11.2199 14.26 10.5999C14.26 9.29988 13.23 8.62988 12 8.62988ZM12 11.4699C11.48 11.4699 11.1 11.1599 11.1 10.6699C11.1 10.1699 11.48 9.87988 12 9.87988C12.52 9.87988 12.9 10.1699 12.9 10.6699C12.9 11.1599 12.52 11.4699 12 11.4699ZM12 14.3799C11.34 14.3799 10.86 14.0499 10.86 13.4499C10.86 12.8499 11.34 12.5299 12 12.5299C12.66 12.5299 13.14 12.8599 13.14 13.4499C13.14 14.0499 12.66 14.3799 12 14.3799Z" fill="#292D32"/>
</svg>
