<svg width="15" height="14" viewBox="0 0 15 14" fill="none" xmlns="http://www.w3.org/2000/svg">
<path d="M10.293 0.333557H4.70634C2.27967 0.333557 0.833008 1.78022 0.833008 4.20689V9.78689C0.833008 12.2202 2.27967 13.6669 4.70634 13.6669H10.2863C12.713 13.6669 14.1597 12.2202 14.1597 9.79356V4.20689C14.1663 1.78022 12.7197 0.333557 10.293 0.333557ZM9.73967 8.53356C9.93301 8.72689 9.93301 9.04689 9.73967 9.24022C9.63967 9.34022 9.51301 9.38689 9.38634 9.38689C9.25968 9.38689 9.13301 9.34022 9.03301 9.24022L7.49967 7.70689L5.96634 9.24022C5.86634 9.34022 5.73967 9.38689 5.61301 9.38689C5.48634 9.38689 5.35967 9.34022 5.25968 9.24022C5.16669 9.14613 5.11454 9.01918 5.11454 8.88689C5.11454 8.7546 5.16669 8.62765 5.25968 8.53356L6.79301 7.00022L5.25968 5.46689C5.16669 5.3728 5.11454 5.24584 5.11454 5.11356C5.11454 4.98127 5.16669 4.85432 5.25968 4.76022C5.45301 4.56689 5.77301 4.56689 5.96634 4.76022L7.49967 6.29356L9.03301 4.76022C9.22634 4.56689 9.54634 4.56689 9.73967 4.76022C9.93301 4.95356 9.93301 5.27356 9.73967 5.46689L8.20634 7.00022L9.73967 8.53356Z" fill="#FB0000"/>
</svg>
