<svg width="42" height="42" viewBox="0 0 42 42" fill="none" xmlns="http://www.w3.org/2000/svg">
<rect width="42" height="42" rx="17.6667" fill="#292925" fill-opacity="0.1"/>
<path d="M16.833 29.334C16.3747 29.334 15.9825 29.1709 15.6563 28.8448C15.3302 28.5187 15.1669 28.1262 15.1663 27.6673C15.1658 27.2084 15.3291 26.8162 15.6563 26.4907C15.9836 26.1651 16.3758 26.0018 16.833 26.0007C17.2902 25.9995 17.6827 26.1629 18.0105 26.4907C18.3383 26.8184 18.5013 27.2107 18.4997 27.6673C18.498 28.124 18.335 28.5165 18.0105 28.8448C17.6861 29.1732 17.2936 29.3362 16.833 29.334ZM25.1663 29.334C24.708 29.334 24.3158 29.1709 23.9897 28.8448C23.6636 28.5187 23.5002 28.1262 23.4997 27.6673C23.4991 27.2084 23.6625 26.8162 23.9897 26.4907C24.3169 26.1651 24.7091 26.0018 25.1663 26.0007C25.6236 25.9995 26.0161 26.1629 26.3438 26.4907C26.6716 26.8184 26.8347 27.2107 26.833 27.6673C26.8313 28.124 26.6683 28.5165 26.3438 28.8448C26.0194 29.1732 25.6269 29.3362 25.1663 29.334ZM13.4997 14.334H12.6663C12.4302 14.334 12.2325 14.254 12.073 14.094C11.9136 13.934 11.8336 13.7362 11.833 13.5007C11.8325 13.2651 11.9125 13.0673 12.073 12.9073C12.2336 12.7473 12.4313 12.6673 12.6663 12.6673H14.0413C14.1941 12.6673 14.34 12.709 14.4788 12.7923C14.6177 12.8757 14.7219 12.9937 14.7913 13.1465L18.1038 20.1673H23.9372L26.958 14.7507C27.0275 14.6118 27.1247 14.5076 27.2497 14.4382C27.3747 14.3687 27.5136 14.334 27.6663 14.334C27.9858 14.334 28.2255 14.4695 28.3855 14.7407C28.5455 15.0118 28.5488 15.2859 28.3955 15.5632L25.4163 20.959C25.2636 21.2368 25.0588 21.452 24.8022 21.6048C24.5455 21.7576 24.2641 21.834 23.958 21.834H17.7497L16.833 23.5007H25.9997C26.2358 23.5007 26.4338 23.5807 26.5938 23.7407C26.7538 23.9007 26.8336 24.0984 26.833 24.334C26.8325 24.5695 26.7525 24.7676 26.593 24.9282C26.4336 25.0887 26.2358 25.1684 25.9997 25.1673H16.833C16.208 25.1673 15.7322 24.8965 15.4055 24.3548C15.0788 23.8132 15.0686 23.2645 15.3747 22.709L16.4997 20.6673L13.4997 14.334ZM20.9997 18.9173C20.7636 18.9173 20.5658 18.8373 20.4063 18.6773C20.2469 18.5173 20.1669 18.3195 20.1663 18.084C20.1658 17.8484 20.2458 17.6507 20.4063 17.4907C20.5669 17.3307 20.7647 17.2507 20.9997 17.2507C21.2347 17.2507 21.4327 17.3307 21.5938 17.4907C21.755 17.6507 21.8347 17.8484 21.833 18.084C21.8313 18.3195 21.7513 18.5176 21.593 18.6782C21.4347 18.8387 21.2369 18.9184 20.9997 18.9173ZM20.9997 16.0007C20.7636 16.0007 20.5658 15.9207 20.4063 15.7607C20.2469 15.6007 20.1669 15.4029 20.1663 15.1673V12.6673C20.1663 12.4312 20.2463 12.2334 20.4063 12.074C20.5663 11.9145 20.7641 11.8345 20.9997 11.834C21.2352 11.8334 21.4333 11.9134 21.5938 12.074C21.7544 12.2345 21.8341 12.4323 21.833 12.6673V15.1673C21.833 15.4034 21.753 15.6015 21.593 15.7615C21.433 15.9215 21.2352 16.0012 20.9997 16.0007Z" fill="#292925"/>
</svg>
