<svg width="150" height="150" viewBox="0 0 150 150" fill="none" xmlns="http://www.w3.org/2000/svg">
<rect x="0.751429" y="0.751429" width="148.497" height="148.497" rx="6.76286" fill="white" stroke="#1B9D2F" stroke-width="1.50286" stroke-dasharray="15.03 15.03"/>
<path d="M45.4598 76.143C44.3505 76.143 43.4012 75.9084 42.6118 75.439C41.8225 74.9697 41.2145 74.303 40.7878 73.439C40.3718 72.575 40.1638 71.5457 40.1638 70.351C40.1638 69.455 40.2812 68.655 40.5158 67.951C40.7612 67.2364 41.1078 66.6337 41.5558 66.143C42.0145 65.6417 42.5745 65.2577 43.2358 64.991C43.8972 64.7137 44.6385 64.575 45.4598 64.575C46.1212 64.575 46.7505 64.671 47.3478 64.863C47.9452 65.0444 48.4625 65.3164 48.8998 65.679C49.0385 65.7857 49.1292 65.9084 49.1718 66.047C49.2252 66.175 49.2305 66.303 49.1878 66.431C49.1558 66.5484 49.0918 66.6497 48.9958 66.735C48.9105 66.8097 48.8038 66.847 48.6758 66.847C48.5478 66.847 48.4038 66.7937 48.2438 66.687C47.8598 66.3777 47.4385 66.1484 46.9798 65.999C46.5212 65.8497 46.0252 65.775 45.4918 65.775C44.6492 65.775 43.9345 65.9564 43.3478 66.319C42.7612 66.671 42.3185 67.1884 42.0198 67.871C41.7212 68.5537 41.5718 69.3804 41.5718 70.351C41.5718 71.3217 41.7212 72.1537 42.0198 72.847C42.3185 73.5297 42.7612 74.0524 43.3478 74.415C43.9345 74.767 44.6492 74.943 45.4918 74.943C46.0145 74.943 46.5105 74.8684 46.9798 74.719C47.4492 74.559 47.8812 74.3244 48.2758 74.015C48.4358 73.9084 48.5798 73.8604 48.7078 73.871C48.8358 73.871 48.9425 73.9084 49.0278 73.983C49.1132 74.0577 49.1718 74.1537 49.2038 74.271C49.2465 74.3884 49.2465 74.511 49.2038 74.639C49.1718 74.767 49.0918 74.879 48.9638 74.975C48.5158 75.359 47.9878 75.6524 47.3798 75.855C46.7825 76.047 46.1425 76.143 45.4598 76.143ZM53.5375 76.143C52.7695 76.143 52.1828 75.9084 51.7775 75.439C51.3721 74.9697 51.1695 74.2977 51.1695 73.423V65.263C51.1695 65.0497 51.2228 64.8897 51.3295 64.783C51.4361 64.6657 51.5961 64.607 51.8095 64.607C52.0121 64.607 52.1721 64.6657 52.2895 64.783C52.4068 64.8897 52.4655 65.0497 52.4655 65.263V73.327C52.4655 73.903 52.5775 74.335 52.8015 74.623C53.0361 74.9004 53.3775 75.039 53.8255 75.039C53.9215 75.039 54.0068 75.0337 54.0815 75.023C54.1561 75.0124 54.2308 75.007 54.3055 75.007C54.4228 74.9964 54.5028 75.023 54.5455 75.087C54.5988 75.151 54.6255 75.279 54.6255 75.471C54.6255 75.663 54.5828 75.807 54.4975 75.903C54.4121 75.999 54.2735 76.063 54.0815 76.095C53.9961 76.1057 53.9055 76.1164 53.8095 76.127C53.7135 76.1377 53.6228 76.143 53.5375 76.143ZM56.5438 76.079C56.3305 76.079 56.1705 76.0204 56.0638 75.903C55.9572 75.775 55.9038 75.599 55.9038 75.375V68.831C55.9038 68.607 55.9572 68.4364 56.0638 68.319C56.1705 68.2017 56.3305 68.143 56.5438 68.143C56.7465 68.143 56.9065 68.2017 57.0238 68.319C57.1412 68.4364 57.1998 68.607 57.1998 68.831V75.375C57.1998 75.599 57.1412 75.775 57.0238 75.903C56.9172 76.0204 56.7572 76.079 56.5438 76.079ZM56.5438 66.351C56.2772 66.351 56.0692 66.2817 55.9198 66.143C55.7705 65.9937 55.6958 65.7964 55.6958 65.551C55.6958 65.295 55.7705 65.103 55.9198 64.975C56.0692 64.8364 56.2772 64.767 56.5438 64.767C56.8212 64.767 57.0292 64.8364 57.1678 64.975C57.3172 65.103 57.3918 65.295 57.3918 65.551C57.3918 65.7964 57.3172 65.9937 57.1678 66.143C57.0292 66.2817 56.8212 66.351 56.5438 66.351ZM62.9186 76.143C62.1399 76.143 61.4679 75.9724 60.9026 75.631C60.3373 75.2897 59.8999 74.815 59.5906 74.207C59.2919 73.5884 59.1426 72.8737 59.1426 72.063C59.1426 71.4444 59.2279 70.8897 59.3986 70.399C59.5693 69.9084 59.8199 69.4924 60.1506 69.151C60.4813 68.799 60.8759 68.5324 61.3346 68.351C61.8039 68.1697 62.3319 68.079 62.9186 68.079C63.3026 68.079 63.7026 68.1377 64.1186 68.255C64.5346 68.3724 64.9133 68.575 65.2546 68.863C65.3613 68.9377 65.4306 69.0284 65.4626 69.135C65.4946 69.2417 65.4946 69.3484 65.4626 69.455C65.4306 69.551 65.3773 69.6364 65.3026 69.711C65.2279 69.775 65.1319 69.8124 65.0146 69.823C64.9079 69.8337 64.7959 69.7964 64.6786 69.711C64.4013 69.4977 64.1186 69.3484 63.8306 69.263C63.5426 69.1777 63.2653 69.135 62.9986 69.135C62.5826 69.135 62.2199 69.2044 61.9106 69.343C61.6013 69.471 61.3399 69.6577 61.1266 69.903C60.9133 70.1484 60.7479 70.4524 60.6306 70.815C60.5239 71.1777 60.4706 71.599 60.4706 72.079C60.4706 73.007 60.6893 73.743 61.1266 74.287C61.5639 74.8204 62.1879 75.087 62.9986 75.087C63.2653 75.087 63.5373 75.0444 63.8146 74.959C64.1026 74.8737 64.3906 74.7244 64.6786 74.511C64.7959 74.4257 64.9079 74.3884 65.0146 74.399C65.1213 74.4097 65.2119 74.4524 65.2866 74.527C65.3613 74.591 65.4093 74.6764 65.4306 74.783C65.4626 74.8897 65.4626 74.9964 65.4306 75.103C65.3986 75.199 65.3293 75.2844 65.2226 75.359C64.8813 75.6364 64.5079 75.839 64.1026 75.967C63.6973 76.0844 63.3026 76.143 62.9186 76.143ZM67.6688 76.111C67.4555 76.111 67.2955 76.0524 67.1888 75.935C67.0822 75.8177 67.0288 75.6524 67.0288 75.439V65.263C67.0288 65.0497 67.0822 64.8897 67.1888 64.783C67.2955 64.6657 67.4555 64.607 67.6688 64.607C67.8715 64.607 68.0315 64.6657 68.1488 64.783C68.2662 64.8897 68.3248 65.0497 68.3248 65.263V71.679H68.3568L71.6368 68.543C71.7862 68.4044 71.9142 68.2977 72.0208 68.223C72.1382 68.1484 72.2928 68.111 72.4848 68.111C72.6555 68.111 72.7888 68.159 72.8848 68.255C72.9808 68.3404 73.0235 68.4524 73.0128 68.591C73.0128 68.719 72.9488 68.8577 72.8208 69.007L69.3328 72.319V71.615L73.1248 75.183C73.2742 75.3324 73.3488 75.4764 73.3488 75.615C73.3488 75.7537 73.2955 75.871 73.1888 75.967C73.0928 76.063 72.9648 76.111 72.8048 76.111C72.6128 76.111 72.4582 76.0737 72.3408 75.999C72.2235 75.9137 72.0795 75.791 71.9088 75.631L68.3568 72.351H68.3248V75.439C68.3248 75.887 68.1062 76.111 67.6688 76.111ZM79.7938 76.111C79.5805 76.111 79.4205 76.0524 79.3138 75.935C79.2072 75.8177 79.1538 75.6524 79.1538 75.439V65.263C79.1538 65.0497 79.2072 64.8897 79.3138 64.783C79.4205 64.6657 79.5805 64.607 79.7938 64.607C79.9965 64.607 80.1565 64.6657 80.2738 64.783C80.3912 64.8897 80.4498 65.0497 80.4498 65.263V69.951H80.2418C80.4658 69.3324 80.8285 68.8684 81.3298 68.559C81.8418 68.239 82.4285 68.079 83.0898 68.079C83.7085 68.079 84.2205 68.191 84.6258 68.415C85.0418 68.639 85.3512 68.9804 85.5538 69.439C85.7565 69.887 85.8578 70.4577 85.8578 71.151V75.439C85.8578 75.6524 85.7992 75.8177 85.6818 75.935C85.5752 76.0524 85.4205 76.111 85.2178 76.111C85.0045 76.111 84.8392 76.0524 84.7218 75.935C84.6152 75.8177 84.5618 75.6524 84.5618 75.439V71.231C84.5618 70.5057 84.4178 69.9777 84.1298 69.647C83.8525 69.3057 83.4045 69.135 82.7858 69.135C82.0712 69.135 81.5005 69.359 81.0738 69.807C80.6578 70.2444 80.4498 70.831 80.4498 71.567V75.439C80.4498 75.887 80.2312 76.111 79.7938 76.111ZM91.7516 76.143C90.9303 76.143 90.2209 75.983 89.6236 75.663C89.0369 75.3324 88.5783 74.8684 88.2476 74.271C87.9276 73.6737 87.7676 72.959 87.7676 72.127C87.7676 71.3164 87.9276 70.6124 88.2476 70.015C88.5676 69.407 89.0049 68.9324 89.5596 68.591C90.1249 68.2497 90.7756 68.079 91.5116 68.079C92.0343 68.079 92.5036 68.1697 92.9196 68.351C93.3356 68.5217 93.6876 68.7724 93.9756 69.103C94.2743 69.4337 94.4983 69.8337 94.6476 70.303C94.8076 70.7724 94.8876 71.3004 94.8876 71.887C94.8876 72.0577 94.8396 72.1857 94.7436 72.271C94.6476 72.3457 94.5089 72.383 94.3276 72.383H88.7596V71.535H94.0236L93.7676 71.743C93.7676 71.167 93.6823 70.6817 93.5116 70.287C93.3409 69.8817 93.0903 69.5724 92.7596 69.359C92.4396 69.1457 92.0343 69.039 91.5436 69.039C90.9996 69.039 90.5356 69.167 90.1516 69.423C89.7783 69.6684 89.4956 70.015 89.3036 70.463C89.1116 70.9004 89.0156 71.4124 89.0156 71.999V72.095C89.0156 73.0764 89.2503 73.823 89.7196 74.335C90.1996 74.847 90.8769 75.103 91.7516 75.103C92.1143 75.103 92.4716 75.055 92.8236 74.959C93.1863 74.863 93.5383 74.703 93.8796 74.479C94.0289 74.383 94.1623 74.3404 94.2796 74.351C94.4076 74.351 94.5089 74.3884 94.5836 74.463C94.6583 74.527 94.7063 74.6124 94.7276 74.719C94.7596 74.815 94.7489 74.9217 94.6956 75.039C94.6529 75.1564 94.5623 75.2577 94.4236 75.343C94.0716 75.599 93.6556 75.7964 93.1756 75.935C92.6956 76.0737 92.2209 76.143 91.7516 76.143ZM97.4192 76.111C97.2059 76.111 97.0406 76.0524 96.9232 75.935C96.8166 75.8177 96.7632 75.6524 96.7632 75.439V68.767C96.7632 68.5537 96.8166 68.3937 96.9232 68.287C97.0299 68.1697 97.1846 68.111 97.3872 68.111C97.5899 68.111 97.7446 68.1697 97.8512 68.287C97.9686 68.3937 98.0272 68.5537 98.0272 68.767V70.063H97.8672C98.0379 69.4337 98.3632 68.9484 98.8432 68.607C99.3232 68.2657 99.9152 68.0844 100.619 68.063C100.779 68.0524 100.907 68.0897 101.003 68.175C101.099 68.2497 101.153 68.383 101.163 68.575C101.174 68.7564 101.131 68.9004 101.035 69.007C100.939 69.1137 100.79 69.1777 100.587 69.199L100.331 69.231C99.6059 69.295 99.0459 69.5297 98.6512 69.935C98.2672 70.3297 98.0752 70.8737 98.0752 71.567V75.439C98.0752 75.6524 98.0166 75.8177 97.8992 75.935C97.7926 76.0524 97.6326 76.111 97.4192 76.111ZM105.908 76.143C105.087 76.143 104.377 75.983 103.78 75.663C103.193 75.3324 102.735 74.8684 102.404 74.271C102.084 73.6737 101.924 72.959 101.924 72.127C101.924 71.3164 102.084 70.6124 102.404 70.015C102.724 69.407 103.161 68.9324 103.716 68.591C104.281 68.2497 104.932 68.079 105.668 68.079C106.191 68.079 106.66 68.1697 107.076 68.351C107.492 68.5217 107.844 68.7724 108.132 69.103C108.431 69.4337 108.655 69.8337 108.804 70.303C108.964 70.7724 109.044 71.3004 109.044 71.887C109.044 72.0577 108.996 72.1857 108.9 72.271C108.804 72.3457 108.665 72.383 108.484 72.383H102.916V71.535H108.18L107.924 71.743C107.924 71.167 107.839 70.6817 107.668 70.287C107.497 69.8817 107.247 69.5724 106.916 69.359C106.596 69.1457 106.191 69.039 105.7 69.039C105.156 69.039 104.692 69.167 104.308 69.423C103.935 69.6684 103.652 70.015 103.46 70.463C103.268 70.9004 103.172 71.4124 103.172 71.999V72.095C103.172 73.0764 103.407 73.823 103.876 74.335C104.356 74.847 105.033 75.103 105.908 75.103C106.271 75.103 106.628 75.055 106.98 74.959C107.343 74.863 107.695 74.703 108.036 74.479C108.185 74.383 108.319 74.3404 108.436 74.351C108.564 74.351 108.665 74.3884 108.74 74.463C108.815 74.527 108.863 74.6124 108.884 74.719C108.916 74.815 108.905 74.9217 108.852 75.039C108.809 75.1564 108.719 75.2577 108.58 75.343C108.228 75.599 107.812 75.7964 107.332 75.935C106.852 76.0737 106.377 76.143 105.908 76.143ZM35.2035 98.143C34.5955 98.143 34.0835 98.0364 33.6675 97.823C33.2622 97.599 32.9582 97.279 32.7555 96.863C32.5529 96.4364 32.4515 95.919 32.4515 95.311V91.231H31.3795C31.1982 91.231 31.0595 91.1884 30.9635 91.103C30.8675 91.007 30.8195 90.879 30.8195 90.719C30.8195 90.559 30.8675 90.4364 30.9635 90.351C31.0595 90.2657 31.1982 90.223 31.3795 90.223H32.4515V88.383C32.4515 88.1697 32.5102 88.0097 32.6275 87.903C32.7449 87.7857 32.9049 87.727 33.1075 87.727C33.3102 87.727 33.4649 87.7857 33.5715 87.903C33.6889 88.0097 33.7475 88.1697 33.7475 88.383V90.223H35.7635C35.9449 90.223 36.0835 90.2657 36.1795 90.351C36.2755 90.4364 36.3235 90.559 36.3235 90.719C36.3235 90.879 36.2755 91.007 36.1795 91.103C36.0835 91.1884 35.9449 91.231 35.7635 91.231H33.7475V95.183C33.7475 95.791 33.8755 96.255 34.1315 96.575C34.3875 96.8844 34.8035 97.039 35.3795 97.039C35.5822 97.039 35.7529 97.0177 35.8915 96.975C36.0409 96.9324 36.1635 96.911 36.2595 96.911C36.3555 96.9004 36.4355 96.9324 36.4995 97.007C36.5635 97.0817 36.5955 97.2097 36.5955 97.391C36.5955 97.519 36.5689 97.6364 36.5155 97.743C36.4729 97.8497 36.3929 97.9244 36.2755 97.967C36.1475 98.0097 35.9769 98.047 35.7635 98.079C35.5609 98.1217 35.3742 98.143 35.2035 98.143ZM40.8312 98.143C40.0738 98.143 39.4178 97.9777 38.8632 97.647C38.3085 97.3164 37.8765 96.8524 37.5672 96.255C37.2685 95.647 37.1192 94.9324 37.1192 94.111C37.1192 93.4924 37.2045 92.9377 37.3752 92.447C37.5458 91.9457 37.7965 91.519 38.1272 91.167C38.4578 90.815 38.8472 90.5484 39.2952 90.367C39.7538 90.175 40.2658 90.079 40.8312 90.079C41.5885 90.079 42.2445 90.2444 42.7992 90.575C43.3538 90.9057 43.7805 91.375 44.0792 91.983C44.3885 92.5804 44.5432 93.2897 44.5432 94.111C44.5432 94.7297 44.4578 95.2844 44.2872 95.775C44.1165 96.2657 43.8658 96.6924 43.5352 97.055C43.2045 97.407 42.8098 97.679 42.3512 97.871C41.9032 98.0524 41.3965 98.143 40.8312 98.143ZM40.8312 97.103C41.3112 97.103 41.7325 96.9857 42.0952 96.751C42.4578 96.5164 42.7352 96.175 42.9272 95.727C43.1298 95.279 43.2312 94.7404 43.2312 94.111C43.2312 93.1404 43.0125 92.399 42.5752 91.887C42.1485 91.375 41.5672 91.119 40.8312 91.119C40.3405 91.119 39.9138 91.2364 39.5512 91.471C39.1992 91.695 38.9218 92.031 38.7192 92.479C38.5272 92.9164 38.4312 93.4604 38.4312 94.111C38.4312 95.071 38.6498 95.8124 39.0872 96.335C39.5245 96.847 40.1058 97.103 40.8312 97.103ZM53.2388 98.143C52.7588 98.143 52.2735 98.0844 51.7828 97.967C51.3028 97.8497 50.8548 97.647 50.4388 97.359C50.3321 97.2844 50.2575 97.199 50.2148 97.103C50.1721 96.9964 50.1561 96.895 50.1668 96.799C50.1881 96.6924 50.2308 96.6017 50.2948 96.527C50.3695 96.4524 50.4548 96.4097 50.5508 96.399C50.6575 96.3777 50.7748 96.399 50.9028 96.463C51.3188 96.719 51.7188 96.9004 52.1028 97.007C52.4975 97.103 52.8868 97.151 53.2708 97.151C53.8788 97.151 54.3375 97.039 54.6468 96.815C54.9561 96.591 55.1108 96.287 55.1108 95.903C55.1108 95.6044 55.0095 95.3697 54.8068 95.199C54.6041 95.0177 54.2841 94.879 53.8468 94.783L52.3908 94.463C51.7188 94.3244 51.2175 94.0844 50.8868 93.743C50.5668 93.4017 50.4068 92.959 50.4068 92.415C50.4068 91.935 50.5295 91.5244 50.7748 91.183C51.0308 90.831 51.3881 90.559 51.8468 90.367C52.3055 90.175 52.8388 90.079 53.4468 90.079C53.9161 90.079 54.3588 90.143 54.7748 90.271C55.2015 90.3884 55.5855 90.5804 55.9268 90.847C56.0335 90.9217 56.1028 91.0124 56.1348 91.119C56.1775 91.215 56.1828 91.3164 56.1508 91.423C56.1295 91.519 56.0815 91.6044 56.0068 91.679C55.9321 91.743 55.8415 91.7804 55.7348 91.791C55.6281 91.8017 55.5161 91.7697 55.3988 91.695C55.0788 91.4817 54.7535 91.327 54.4228 91.231C54.0921 91.1244 53.7668 91.071 53.4468 91.071C52.8495 91.071 52.3961 91.1884 52.0868 91.423C51.7775 91.6577 51.6228 91.967 51.6228 92.351C51.6228 92.6497 51.7188 92.895 51.9108 93.087C52.1028 93.279 52.4015 93.4177 52.8068 93.503L54.2628 93.807C54.9561 93.9564 55.4735 94.1964 55.8148 94.527C56.1668 94.847 56.3428 95.2844 56.3428 95.839C56.3428 96.543 56.0601 97.103 55.4948 97.519C54.9295 97.935 54.1775 98.143 53.2388 98.143ZM61.8219 98.143C61.0006 98.143 60.2912 97.983 59.6939 97.663C59.1072 97.3324 58.6486 96.8684 58.3179 96.271C57.9979 95.6737 57.8379 94.959 57.8379 94.127C57.8379 93.3164 57.9979 92.6124 58.3179 92.015C58.6379 91.407 59.0752 90.9324 59.6299 90.591C60.1952 90.2497 60.8459 90.079 61.5819 90.079C62.1046 90.079 62.5739 90.1697 62.9899 90.351C63.4059 90.5217 63.7579 90.7724 64.0459 91.103C64.3446 91.4337 64.5686 91.8337 64.7179 92.303C64.8779 92.7724 64.9579 93.3004 64.9579 93.887C64.9579 94.0577 64.9099 94.1857 64.8139 94.271C64.7179 94.3457 64.5792 94.383 64.3979 94.383H58.8299V93.535H64.0939L63.8379 93.743C63.8379 93.167 63.7526 92.6817 63.5819 92.287C63.4112 91.8817 63.1606 91.5724 62.8299 91.359C62.5099 91.1457 62.1046 91.039 61.6139 91.039C61.0699 91.039 60.6059 91.167 60.2219 91.423C59.8486 91.6684 59.5659 92.015 59.3739 92.463C59.1819 92.9004 59.0859 93.4124 59.0859 93.999V94.095C59.0859 95.0764 59.3206 95.823 59.7899 96.335C60.2699 96.847 60.9472 97.103 61.8219 97.103C62.1846 97.103 62.5419 97.055 62.8939 96.959C63.2566 96.863 63.6086 96.703 63.9499 96.479C64.0992 96.383 64.2326 96.3404 64.3499 96.351C64.4779 96.351 64.5792 96.3884 64.6539 96.463C64.7286 96.527 64.7766 96.6124 64.7979 96.719C64.8299 96.815 64.8192 96.9217 64.7659 97.039C64.7232 97.1564 64.6326 97.2577 64.4939 97.343C64.1419 97.599 63.7259 97.7964 63.2459 97.935C62.7659 98.0737 62.2912 98.143 61.8219 98.143ZM69.2015 98.143C68.4335 98.143 67.8469 97.9084 67.4415 97.439C67.0362 96.9697 66.8335 96.2977 66.8335 95.423V87.263C66.8335 87.0497 66.8869 86.8897 66.9935 86.783C67.1002 86.6657 67.2602 86.607 67.4735 86.607C67.6762 86.607 67.8362 86.6657 67.9535 86.783C68.0709 86.8897 68.1295 87.0497 68.1295 87.263V95.327C68.1295 95.903 68.2415 96.335 68.4655 96.623C68.7002 96.9004 69.0415 97.039 69.4895 97.039C69.5855 97.039 69.6709 97.0337 69.7455 97.023C69.8202 97.0124 69.8949 97.007 69.9695 97.007C70.0869 96.9964 70.1669 97.023 70.2095 97.087C70.2629 97.151 70.2895 97.279 70.2895 97.471C70.2895 97.663 70.2469 97.807 70.1615 97.903C70.0762 97.999 69.9375 98.063 69.7455 98.095C69.6602 98.1057 69.5695 98.1164 69.4735 98.127C69.3775 98.1377 69.2869 98.143 69.2015 98.143ZM74.9938 98.143C74.1725 98.143 73.4631 97.983 72.8658 97.663C72.2791 97.3324 71.8205 96.8684 71.4898 96.271C71.1698 95.6737 71.0098 94.959 71.0098 94.127C71.0098 93.3164 71.1698 92.6124 71.4898 92.015C71.8098 91.407 72.2471 90.9324 72.8018 90.591C73.3671 90.2497 74.0178 90.079 74.7538 90.079C75.2765 90.079 75.7458 90.1697 76.1618 90.351C76.5778 90.5217 76.9298 90.7724 77.2178 91.103C77.5165 91.4337 77.7405 91.8337 77.8898 92.303C78.0498 92.7724 78.1298 93.3004 78.1298 93.887C78.1298 94.0577 78.0818 94.1857 77.9858 94.271C77.8898 94.3457 77.7511 94.383 77.5698 94.383H72.0018V93.535H77.2658L77.0098 93.743C77.0098 93.167 76.9245 92.6817 76.7538 92.287C76.5831 91.8817 76.3325 91.5724 76.0018 91.359C75.6818 91.1457 75.2765 91.039 74.7858 91.039C74.2418 91.039 73.7778 91.167 73.3938 91.423C73.0205 91.6684 72.7378 92.015 72.5458 92.463C72.3538 92.9004 72.2578 93.4124 72.2578 93.999V94.095C72.2578 95.0764 72.4925 95.823 72.9618 96.335C73.4418 96.847 74.1191 97.103 74.9938 97.103C75.3565 97.103 75.7138 97.055 76.0658 96.959C76.4285 96.863 76.7805 96.703 77.1218 96.479C77.2711 96.383 77.4045 96.3404 77.5218 96.351C77.6498 96.351 77.7511 96.3884 77.8258 96.463C77.9005 96.527 77.9485 96.6124 77.9698 96.719C78.0018 96.815 77.9911 96.9217 77.9378 97.039C77.8951 97.1564 77.8045 97.2577 77.6658 97.343C77.3138 97.599 76.8978 97.7964 76.4178 97.935C75.9378 98.0737 75.4631 98.143 74.9938 98.143ZM83.3014 98.143C82.5227 98.143 81.8507 97.9724 81.2854 97.631C80.7201 97.2897 80.2827 96.815 79.9734 96.207C79.6747 95.5884 79.5254 94.8737 79.5254 94.063C79.5254 93.4444 79.6107 92.8897 79.7814 92.399C79.9521 91.9084 80.2027 91.4924 80.5334 91.151C80.8641 90.799 81.2587 90.5324 81.7174 90.351C82.1867 90.1697 82.7147 90.079 83.3014 90.079C83.6854 90.079 84.0854 90.1377 84.5014 90.255C84.9174 90.3724 85.2961 90.575 85.6374 90.863C85.7441 90.9377 85.8134 91.0284 85.8454 91.135C85.8774 91.2417 85.8774 91.3484 85.8454 91.455C85.8134 91.551 85.7601 91.6364 85.6854 91.711C85.6107 91.775 85.5147 91.8124 85.3974 91.823C85.2907 91.8337 85.1787 91.7964 85.0614 91.711C84.7841 91.4977 84.5014 91.3484 84.2134 91.263C83.9254 91.1777 83.6481 91.135 83.3814 91.135C82.9654 91.135 82.6027 91.2044 82.2934 91.343C81.9841 91.471 81.7227 91.6577 81.5094 91.903C81.2961 92.1484 81.1307 92.4524 81.0134 92.815C80.9067 93.1777 80.8534 93.599 80.8534 94.079C80.8534 95.007 81.0721 95.743 81.5094 96.287C81.9467 96.8204 82.5707 97.087 83.3814 97.087C83.6481 97.087 83.9201 97.0444 84.1974 96.959C84.4854 96.8737 84.7734 96.7244 85.0614 96.511C85.1787 96.4257 85.2907 96.3884 85.3974 96.399C85.5041 96.4097 85.5947 96.4524 85.6694 96.527C85.7441 96.591 85.7921 96.6764 85.8134 96.783C85.8454 96.8897 85.8454 96.9964 85.8134 97.103C85.7814 97.199 85.7121 97.2844 85.6054 97.359C85.2641 97.6364 84.8907 97.839 84.4854 97.967C84.0801 98.0844 83.6854 98.143 83.3014 98.143ZM90.5317 98.143C89.9237 98.143 89.4117 98.0364 88.9957 97.823C88.5903 97.599 88.2863 97.279 88.0837 96.863C87.881 96.4364 87.7797 95.919 87.7797 95.311V91.231H86.7077C86.5263 91.231 86.3877 91.1884 86.2917 91.103C86.1957 91.007 86.1477 90.879 86.1477 90.719C86.1477 90.559 86.1957 90.4364 86.2917 90.351C86.3877 90.2657 86.5263 90.223 86.7077 90.223H87.7797V88.383C87.7797 88.1697 87.8383 88.0097 87.9557 87.903C88.073 87.7857 88.233 87.727 88.4357 87.727C88.6383 87.727 88.793 87.7857 88.8997 87.903C89.017 88.0097 89.0757 88.1697 89.0757 88.383V90.223H91.0917C91.273 90.223 91.4117 90.2657 91.5077 90.351C91.6037 90.4364 91.6517 90.559 91.6517 90.719C91.6517 90.879 91.6037 91.007 91.5077 91.103C91.4117 91.1884 91.273 91.231 91.0917 91.231H89.0757V95.183C89.0757 95.791 89.2037 96.255 89.4597 96.575C89.7157 96.8844 90.1317 97.039 90.7077 97.039C90.9103 97.039 91.081 97.0177 91.2197 96.975C91.369 96.9324 91.4917 96.911 91.5877 96.911C91.6837 96.9004 91.7637 96.9324 91.8277 97.007C91.8917 97.0817 91.9237 97.2097 91.9237 97.391C91.9237 97.519 91.897 97.6364 91.8437 97.743C91.801 97.8497 91.721 97.9244 91.6037 97.967C91.4757 98.0097 91.305 98.047 91.0917 98.079C90.889 98.1217 90.7023 98.143 90.5317 98.143ZM98.1864 98.111C97.9837 98.111 97.8237 98.0524 97.7064 97.935C97.5997 97.8177 97.5464 97.6524 97.5464 97.439V91.231H96.5224C96.3517 91.231 96.2131 91.1884 96.1064 91.103C96.0104 91.007 95.9624 90.879 95.9624 90.719C95.9624 90.559 96.0104 90.4364 96.1064 90.351C96.2131 90.2657 96.3517 90.223 96.5224 90.223H97.8984L97.5464 90.559V89.951C97.5464 88.9484 97.7864 88.1804 98.2664 87.647C98.7571 87.1137 99.4771 86.8097 100.426 86.735L100.906 86.687C101.066 86.6764 101.194 86.703 101.29 86.767C101.386 86.8204 101.445 86.895 101.466 86.991C101.498 87.087 101.504 87.1884 101.482 87.295C101.461 87.4017 101.413 87.4924 101.338 87.567C101.274 87.6417 101.194 87.6844 101.098 87.695L100.618 87.727C99.9891 87.7697 99.5357 87.967 99.2584 88.319C98.9811 88.6604 98.8424 89.151 98.8424 89.791V90.463L98.6504 90.223H103.002C103.205 90.223 103.36 90.2817 103.466 90.399C103.584 90.5164 103.642 90.687 103.642 90.911V97.375C103.642 97.599 103.589 97.775 103.482 97.903C103.376 98.0204 103.216 98.079 103.002 98.079C102.789 98.079 102.624 98.0204 102.506 97.903C102.4 97.775 102.346 97.599 102.346 97.375V91.231H98.8424V97.439C98.8424 97.887 98.6237 98.111 98.1864 98.111ZM103.018 88.351C102.752 88.351 102.544 88.2817 102.394 88.143C102.256 87.9937 102.186 87.7964 102.186 87.551C102.186 87.295 102.256 87.103 102.394 86.975C102.544 86.8364 102.752 86.767 103.018 86.767C103.285 86.767 103.488 86.8364 103.626 86.975C103.776 87.103 103.85 87.295 103.85 87.551C103.85 87.7964 103.776 87.9937 103.626 88.143C103.488 88.2817 103.285 88.351 103.018 88.351ZM108.436 98.143C107.668 98.143 107.081 97.9084 106.676 97.439C106.271 96.9697 106.068 96.2977 106.068 95.423V87.263C106.068 87.0497 106.121 86.8897 106.228 86.783C106.335 86.6657 106.495 86.607 106.708 86.607C106.911 86.607 107.071 86.6657 107.188 86.783C107.305 86.8897 107.364 87.0497 107.364 87.263V95.327C107.364 95.903 107.476 96.335 107.7 96.623C107.935 96.9004 108.276 97.039 108.724 97.039C108.82 97.039 108.905 97.0337 108.98 97.023C109.055 97.0124 109.129 97.007 109.204 97.007C109.321 96.9964 109.401 97.023 109.444 97.087C109.497 97.151 109.524 97.279 109.524 97.471C109.524 97.663 109.481 97.807 109.396 97.903C109.311 97.999 109.172 98.063 108.98 98.095C108.895 98.1057 108.804 98.1164 108.708 98.127C108.612 98.1377 108.521 98.143 108.436 98.143ZM114.228 98.143C113.407 98.143 112.697 97.983 112.1 97.663C111.513 97.3324 111.055 96.8684 110.724 96.271C110.404 95.6737 110.244 94.959 110.244 94.127C110.244 93.3164 110.404 92.6124 110.724 92.015C111.044 91.407 111.481 90.9324 112.036 90.591C112.601 90.2497 113.252 90.079 113.988 90.079C114.511 90.079 114.98 90.1697 115.396 90.351C115.812 90.5217 116.164 90.7724 116.452 91.103C116.751 91.4337 116.975 91.8337 117.124 92.303C117.284 92.7724 117.364 93.3004 117.364 93.887C117.364 94.0577 117.316 94.1857 117.22 94.271C117.124 94.3457 116.985 94.383 116.804 94.383H111.236V93.535H116.5L116.244 93.743C116.244 93.167 116.159 92.6817 115.988 92.287C115.817 91.8817 115.567 91.5724 115.236 91.359C114.916 91.1457 114.511 91.039 114.02 91.039C113.476 91.039 113.012 91.167 112.628 91.423C112.255 91.6684 111.972 92.015 111.78 92.463C111.588 92.9004 111.492 93.4124 111.492 93.999V94.095C111.492 95.0764 111.727 95.823 112.196 96.335C112.676 96.847 113.353 97.103 114.228 97.103C114.591 97.103 114.948 97.055 115.3 96.959C115.663 96.863 116.015 96.703 116.356 96.479C116.505 96.383 116.639 96.3404 116.756 96.351C116.884 96.351 116.985 96.3884 117.06 96.463C117.135 96.527 117.183 96.6124 117.204 96.719C117.236 96.815 117.225 96.9217 117.172 97.039C117.129 97.1564 117.039 97.2577 116.9 97.343C116.548 97.599 116.132 97.7964 115.652 97.935C115.172 98.0737 114.697 98.143 114.228 98.143Z" fill="#969795"/>
</svg>
