<svg width="40" height="40" viewBox="0 0 40 40" fill="none" xmlns="http://www.w3.org/2000/svg">
<rect width="40" height="40" rx="20" fill="#FFE5E5"/>
<path fill-rule="evenodd" clip-rule="evenodd" d="M18.7996 10.4C18.5768 10.4001 18.3585 10.4623 18.169 10.5795C17.9795 10.6967 17.8264 10.8643 17.7268 11.0636L16.858 12.8H12.7996C12.4813 12.8 12.1761 12.9265 11.9511 13.1515C11.726 13.3765 11.5996 13.6818 11.5996 14C11.5996 14.3183 11.726 14.6235 11.9511 14.8486C12.1761 15.0736 12.4813 15.2 12.7996 15.2V27.2C12.7996 27.8365 13.0525 28.447 13.5026 28.8971C13.9526 29.3472 14.5631 29.6 15.1996 29.6H24.7996C25.4361 29.6 26.0466 29.3472 26.4967 28.8971C26.9468 28.447 27.1996 27.8365 27.1996 27.2V15.2C27.5179 15.2 27.8231 15.0736 28.0481 14.8486C28.2732 14.6235 28.3996 14.3183 28.3996 14C28.3996 13.6818 28.2732 13.3765 28.0481 13.1515C27.8231 12.9265 27.5179 12.8 27.1996 12.8H23.1412L22.2724 11.0636C22.1728 10.8643 22.0197 10.6967 21.8302 10.5795C21.6408 10.4623 21.4224 10.4001 21.1996 10.4H18.7996ZM16.3996 17.6C16.3996 17.2818 16.526 16.9765 16.7511 16.7515C16.9761 16.5265 17.2813 16.4 17.5996 16.4C17.9179 16.4 18.2231 16.5265 18.4481 16.7515C18.6732 16.9765 18.7996 17.2818 18.7996 17.6V24.8C18.7996 25.1183 18.6732 25.4235 18.4481 25.6486C18.2231 25.8736 17.9179 26 17.5996 26C17.2813 26 16.9761 25.8736 16.7511 25.6486C16.526 25.4235 16.3996 25.1183 16.3996 24.8V17.6ZM22.3996 16.4C22.0814 16.4 21.7761 16.5265 21.5511 16.7515C21.326 16.9765 21.1996 17.2818 21.1996 17.6V24.8C21.1996 25.1183 21.326 25.4235 21.5511 25.6486C21.7761 25.8736 22.0814 26 22.3996 26C22.7179 26 23.0231 25.8736 23.2481 25.6486C23.4732 25.4235 23.5996 25.1183 23.5996 24.8V17.6C23.5996 17.2818 23.4732 16.9765 23.2481 16.7515C23.0231 16.5265 22.7179 16.4 22.3996 16.4Z" fill="#E43F40"/>
</svg>
