<svg width="24" height="24" viewBox="0 0 24 24" fill="none" xmlns="http://www.w3.org/2000/svg">
<path d="M10.5 5.5C10.5 5.36739 10.5527 5.24021 10.6464 5.14645C10.7402 5.05268 10.8674 5 11 5H13C13.1326 5 13.2598 5.05268 13.3536 5.14645C13.4473 5.24021 13.5 5.36739 13.5 5.5C13.5 5.63261 13.4473 5.75979 13.3536 5.85355C13.2598 5.94732 13.1326 6 13 6H11C10.8674 6 10.7402 5.94732 10.6464 5.85355C10.5527 5.75979 10.5 5.63261 10.5 5.5Z" fill="#292925"/>
<path fill-rule="evenodd" clip-rule="evenodd" d="M16.6823 9.26C16.5008 9.4025 16.2653 9.5165 15.9813 9.609C15.9939 9.73767 16.0003 9.868 16.0003 10C16.0001 10.5416 15.8898 11.0776 15.6763 11.5753C15.4628 12.0731 15.1504 12.5223 14.7581 12.8958C14.3657 13.2692 13.9017 13.559 13.394 13.7478C12.8863 13.9365 12.3455 14.0201 11.8045 13.9936C11.2636 13.9671 10.7336 13.831 10.2468 13.5936C9.75996 13.3561 9.32644 13.0223 8.97249 12.6123C8.61855 12.2023 8.35156 11.7247 8.1877 11.2085C8.02385 10.6922 7.96655 10.1481 8.01928 9.609C7.73528 9.5165 7.49978 9.4025 7.31878 9.26C7.08378 9.075 6.92628 8.828 6.90778 8.531C6.89028 8.2555 6.99928 8.0215 7.10828 7.8565C7.21583 7.70018 7.34361 7.55878 7.48828 7.436C7.55894 7.37467 7.62661 7.32017 7.69128 7.2725C7.67195 7.1695 7.65161 7.04617 7.63028 6.9025C7.54215 6.27219 7.49871 5.63644 7.50028 5C7.50028 4.843 7.56728 4.726 7.59828 4.6765C7.63728 4.614 7.68328 4.5605 7.72528 4.5175C7.80878 4.43 7.91678 4.341 8.03528 4.2555C8.27528 4.0815 8.60528 3.886 8.99728 3.703C9.77878 3.338 10.8523 3 12.0003 3C13.1483 3 14.2218 3.3385 15.0033 3.703C15.3403 3.85706 15.6624 4.04202 15.9653 4.2555C16.0838 4.341 16.1918 4.4305 16.2753 4.5175C16.3173 4.5605 16.3633 4.614 16.4023 4.6765C16.4333 4.726 16.5003 4.843 16.5003 5C16.5003 5.801 16.4353 6.45 16.3703 6.9025C16.3489 7.0465 16.3286 7.16983 16.3093 7.2725C16.3733 7.32 16.4428 7.3745 16.5128 7.436C16.6378 7.5455 16.7808 7.688 16.8923 7.8565C17.0018 8.0215 17.1103 8.2555 17.0933 8.5315C17.0748 8.828 16.9173 9.075 16.6823 9.26ZM8.50128 5.159C8.50878 5.833 8.56478 6.378 8.62028 6.759C8.63361 6.849 8.64628 6.92933 8.65828 7H15.3423C15.3546 6.929 15.3673 6.84867 15.3803 6.759C15.4353 6.378 15.4918 5.833 15.4993 5.159C15.4603 5.12614 15.4201 5.09479 15.3788 5.065C15.1983 4.9345 14.9243 4.77 14.5803 4.6095C13.8888 4.2865 12.9623 4 12.0003 4C11.0383 4 10.1118 4.2865 9.42028 4.6095C9.07628 4.77 8.80228 4.9345 8.62228 5.0645C8.58074 5.0946 8.54038 5.12629 8.50128 5.1595M8.39428 8L8.39278 8.001C8.30646 8.05847 8.2238 8.12126 8.14528 8.189C8.05628 8.267 7.98528 8.343 7.94228 8.409C7.93228 8.42399 7.9231 8.43952 7.91478 8.4555L7.93678 8.474C8.01178 8.533 8.17278 8.6195 8.48678 8.705C8.54878 8.72167 8.61528 8.738 8.68628 8.754L8.69078 8.755C8.94178 8.8105 9.25078 8.86 9.62728 8.899C10.1608 8.9545 10.8323 8.991 11.6713 8.999L12.0003 9C13.6138 9 14.6573 8.8995 15.3103 8.755L15.3143 8.754C15.3856 8.73833 15.4523 8.722 15.5143 8.705C15.8278 8.62 15.9893 8.533 16.0638 8.474L16.0858 8.4555C16.0776 8.43953 16.0686 8.42401 16.0588 8.409C16.0004 8.32745 15.932 8.25354 15.8553 8.189C15.7769 8.12128 15.6944 8.05849 15.6083 8.001L15.6063 8H8.39428ZM11.8643 10C13.1853 10 14.2093 9.93 14.9943 9.808C14.9983 9.87133 15.0003 9.93533 15.0003 10C14.9999 10.4004 14.9194 10.7966 14.7635 11.1654C14.6077 11.5342 14.3795 11.868 14.0926 12.1473C13.8057 12.4265 13.4658 12.6455 13.0929 12.7913C12.72 12.9371 12.3217 13.0068 11.9215 12.9963C11.5213 12.9858 11.1272 12.8953 10.7625 12.7301C10.3978 12.5649 10.0698 12.3284 9.79796 12.0345C9.5261 11.7405 9.31581 11.3952 9.1795 11.0187C9.04319 10.6423 8.98361 10.2423 9.00428 9.8425C9.73578 9.9435 10.6733 10 11.8643 10ZM8.03928 19.4385C8.01311 19.6245 8.00008 19.8121 8.00028 20V20.5C8.00033 20.6099 7.96417 20.7168 7.89738 20.8041C7.83059 20.8914 7.73689 20.9542 7.63078 20.9829C7.52468 21.0116 7.41208 21.0045 7.31039 20.9628C7.20871 20.9211 7.12362 20.847 7.06828 20.752C6.73114 20.9343 6.33701 20.9806 5.96678 20.8815L5.00078 20.6225C4.61666 20.5194 4.28921 20.268 4.09043 19.9235C3.89166 19.579 3.83783 19.1697 3.94078 18.7855L4.32878 17.3365C4.43178 16.9523 4.68317 16.6247 5.02767 16.4258C5.37216 16.227 5.78155 16.1731 6.16578 16.276L7.13178 16.5345C7.46778 16.6245 7.74678 16.822 7.94078 17.08C8.40372 16.4358 9.01344 15.9112 9.71946 15.5494C10.4255 15.1877 11.2075 14.9994 12.0008 15C12.7936 14.9996 13.5752 15.1879 14.2808 15.5495C14.9865 15.911 15.5959 16.4353 16.0588 17.079C16.2601 16.8128 16.5444 16.6214 16.8668 16.535L17.8328 16.2765C18.2169 16.1735 18.6263 16.2274 18.9707 16.4262C19.3152 16.6249 19.5667 16.9524 19.6698 17.3365L20.0583 18.786C20.1092 18.9763 20.1222 19.1747 20.0965 19.37C20.0707 19.5653 20.0068 19.7537 19.9083 19.9242C19.8097 20.0948 19.6786 20.2443 19.5223 20.3642C19.366 20.4841 19.1876 20.5721 18.9973 20.623L18.0318 20.8815C17.6622 20.9807 17.2687 20.9349 16.9318 20.7535C16.8763 20.8483 16.7911 20.9222 16.6893 20.9638C16.5876 21.0053 16.475 21.0122 16.369 20.9834C16.263 20.9545 16.1694 20.8915 16.1027 20.8041C16.0361 20.7168 16.0001 20.6099 16.0003 20.5V20C16.0005 19.8121 15.9874 19.6245 15.9613 19.4385L13.3593 20.136C13.2385 20.3945 13.0465 20.6132 12.8058 20.7665C12.5651 20.9197 12.2856 21.0011 12.0003 21.0011C11.7149 21.0011 11.4355 20.9197 11.1948 20.7665C10.9541 20.6132 10.7621 20.3945 10.6413 20.136L8.03928 19.4385ZM10.5603 19.0785C10.6271 18.8504 10.7472 18.6415 10.9106 18.4689C11.0741 18.2964 11.2762 18.1651 11.5003 18.086V16.031C10.799 16.1197 10.1336 16.3925 9.57186 16.8215C9.01009 17.2506 8.57189 17.8207 8.30178 18.474L10.5603 19.0785ZM15.6988 18.4735C15.4286 17.8203 14.9904 17.2503 14.4286 16.8213C13.8668 16.3923 13.2015 16.1197 12.5003 16.031V18.0855C12.9523 18.2455 13.3053 18.6155 13.4403 19.079L15.6988 18.4735ZM16.7723 18.1135C16.7553 18.0501 16.7509 17.9839 16.7595 17.9188C16.768 17.8537 16.7893 17.7909 16.8222 17.734C16.855 17.6771 16.8987 17.6273 16.9508 17.5873C17.0029 17.5473 17.0623 17.518 17.1258 17.501L18.0918 17.242C18.2198 17.2078 18.3562 17.2258 18.4709 17.2921C18.5857 17.3584 18.6694 17.4675 18.7038 17.5955L19.0923 19.0445C19.1093 19.1079 19.1136 19.1741 19.1051 19.2392C19.0965 19.3043 19.0752 19.3671 19.0424 19.424C19.0096 19.4809 18.9659 19.5307 18.9138 19.5707C18.8617 19.6107 18.8022 19.64 18.7388 19.657L17.7728 19.916C17.7093 19.933 17.6431 19.9373 17.578 19.9287C17.5129 19.9202 17.45 19.8988 17.3932 19.8659C17.3363 19.8331 17.2864 19.7893 17.2465 19.7371C17.2065 19.685 17.1772 19.6255 17.1603 19.562L16.7723 18.1135ZM5.90728 17.242C5.84382 17.2249 5.77761 17.2205 5.71244 17.229C5.64727 17.2375 5.58442 17.2588 5.52749 17.2917C5.47056 17.3245 5.42065 17.3682 5.38064 17.4204C5.34062 17.4725 5.31127 17.532 5.29428 17.5955L4.90628 19.044C4.88926 19.1074 4.88491 19.1736 4.89347 19.2387C4.90203 19.3038 4.92333 19.3666 4.95615 19.4235C4.98898 19.4804 5.03269 19.5302 5.08479 19.5702C5.13688 19.6102 5.19635 19.6395 5.25978 19.6565L6.22578 19.9155C6.28921 19.9325 6.35537 19.9369 6.42048 19.9283C6.48559 19.9198 6.54838 19.8985 6.60525 19.8656C6.66213 19.8328 6.71198 19.7891 6.75197 19.737C6.79195 19.6849 6.82128 19.6254 6.83828 19.562L7.22628 18.113C7.24337 18.0495 7.24778 17.9833 7.23926 17.9182C7.23073 17.853 7.20945 17.7901 7.17662 17.7332C7.14378 17.6763 7.10005 17.6264 7.04791 17.5864C6.99578 17.5463 6.93627 17.517 6.87278 17.5L5.90728 17.242ZM12.5003 19.5C12.5003 19.6326 12.4476 19.7598 12.3538 19.8536C12.2601 19.9473 12.1329 20 12.0003 20C11.8677 20 11.7405 19.9473 11.6467 19.8536C11.553 19.7598 11.5003 19.6326 11.5003 19.5C11.5003 19.3674 11.553 19.2402 11.6467 19.1464C11.7405 19.0527 11.8677 19 12.0003 19C12.1329 19 12.2601 19.0527 12.3538 19.1464C12.4476 19.2402 12.5003 19.3674 12.5003 19.5Z" fill="#292925"/>
</svg>
