<svg width="18" height="18" viewBox="0 0 18 18" fill="none" xmlns="http://www.w3.org/2000/svg">
<path d="M14.3178 10.8307V14.1607C14.3176 14.6318 14.1303 15.0836 13.7971 15.4168C13.464 15.75 13.0122 15.9372 12.541 15.9374H3.84026C3.60607 15.9373 3.37422 15.891 3.15801 15.801C2.9418 15.711 2.74551 15.5792 2.5804 15.4131C2.4153 15.247 2.28464 15.0499 2.19593 14.8332C2.10723 14.6165 2.06222 14.3844 2.06351 14.1502V5.45917C2.06211 5.22536 2.10714 4.99359 2.19597 4.77731C2.28481 4.56102 2.41568 4.36452 2.58102 4.19918C2.74635 4.03385 2.94286 3.90297 3.15914 3.81414C3.37543 3.7253 3.60719 3.68028 3.84101 3.68167H7.17026" stroke="#1E1E1E" stroke-width="1.5" stroke-linecap="round" stroke-linejoin="round"/>
<path d="M14.3182 6.7458L11.2545 3.6813M5.12695 11.8518V10.228C5.12845 9.9603 5.23495 9.70305 5.4232 9.5133L12.5722 2.3643C12.6671 2.26838 12.78 2.19223 12.9045 2.14026C13.029 2.08828 13.1626 2.06152 13.2975 2.06152C13.4324 2.06152 13.5659 2.08828 13.6904 2.14026C13.8149 2.19223 13.9278 2.26838 14.0227 2.3643L15.636 3.97755C15.7319 4.07241 15.808 4.18535 15.86 4.30984C15.912 4.43433 15.9387 4.56789 15.9387 4.7028C15.9387 4.8377 15.912 4.97126 15.86 5.09575C15.808 5.22025 15.7319 5.33319 15.636 5.42805L8.48695 12.577C8.29686 12.7658 8.04012 12.8722 7.7722 12.8733H6.14845C6.01425 12.8735 5.88133 12.8472 5.75731 12.7959C5.63329 12.7447 5.5206 12.6694 5.4257 12.5745C5.33081 12.4797 5.25557 12.367 5.20431 12.2429C5.15304 12.1189 5.12676 11.986 5.12695 11.8518Z" stroke="#1E1E1E" stroke-width="1.5" stroke-linecap="round" stroke-linejoin="round"/>
</svg>
