<svg width="22" height="22" viewBox="0 0 22 22" fill="none" xmlns="http://www.w3.org/2000/svg">
<path d="M21.03 19.97L20.29 19.23C20.67 18.65 20.9 17.95 20.9 17.2C20.9 15.16 19.24 13.5 17.2 13.5C15.16 13.5 13.5 15.16 13.5 17.2C13.5 19.24 15.16 20.9 17.2 20.9C17.95 20.9 18.65 20.67 19.23 20.29L19.97 21.03C20.12 21.18 20.31 21.25 20.5 21.25C20.69 21.25 20.88 21.18 21.03 21.03C21.32 20.74 21.32 20.26 21.03 19.97Z" fill="#1E1432"/>
<path opacity="0.4" d="M0.5 11.472V5.49196C0.5 2.74196 2.74 0.511963 5.5 0.511963H15.5C18.26 0.511963 20.5 2.74196 20.5 5.50196V12.482C20.5 15.232 18.26 17.462 15.5 17.462H14C13.69 17.462 13.39 17.612 13.2 17.862L11.7 19.852C11.04 20.732 9.96 20.732 9.3 19.852L7.8 17.862C7.63 17.642 7.28 17.462 7 17.462H5.5C2.74 17.462 0.5 15.232 0.5 12.482V11.472Z" fill="#1E1432"/>
<path d="M10.4983 10.5C9.93828 10.5 9.48828 10.05 9.48828 9.5C9.48828 8.95 9.93828 8.5 10.4883 8.5C11.0383 8.5 11.4883 8.95 11.4883 9.5C11.4883 10.05 11.0583 10.5 10.4983 10.5Z" fill="#1E1432"/>
<path d="M14.4983 10.5C13.9383 10.5 13.4883 10.05 13.4883 9.5C13.4883 8.95 13.9383 8.5 14.4883 8.5C15.0383 8.5 15.4883 8.95 15.4883 9.5C15.4883 10.05 15.0583 10.5 14.4983 10.5Z" fill="#1E1432"/>
<path d="M6.49828 10.5C5.93828 10.5 5.48828 10.05 5.48828 9.5C5.48828 8.95 5.93828 8.5 6.48828 8.5C7.03828 8.5 7.48828 8.95 7.48828 9.5C7.48828 10.05 7.05828 10.5 6.49828 10.5Z" fill="#1E1432"/>
</svg>
