<svg width="17" height="16" viewBox="0 0 17 16" fill="none" xmlns="http://www.w3.org/2000/svg">
<path d="M15.88 6.09506L11.2355 5.42005L9.15924 1.21087C9.10254 1.09563 9.00924 1.00233 8.894 0.945627C8.60498 0.802943 8.25376 0.921846 8.10924 1.21087L6.03303 5.42005L1.38852 6.09506C1.26047 6.11335 1.1434 6.17372 1.05376 6.26518C0.945402 6.37656 0.885689 6.52641 0.887747 6.68179C0.889805 6.83717 0.953465 6.98538 1.06474 7.09385L4.4251 10.3701L3.6312 14.9964C3.61258 15.104 3.62449 15.2147 3.66558 15.3158C3.70666 15.417 3.77528 15.5047 3.86364 15.5689C3.95201 15.6331 4.05659 15.6712 4.16553 15.679C4.27447 15.6867 4.3834 15.6638 4.47998 15.6128L8.63424 13.4287L12.7885 15.6128C12.9019 15.6732 13.0336 15.6933 13.1599 15.6714C13.4781 15.6165 13.6922 15.3146 13.6373 14.9964L12.8434 10.3701L16.2037 7.09385C16.2952 7.00421 16.3556 6.88714 16.3739 6.75909C16.4233 6.43897 16.2001 6.14262 15.88 6.09506Z" fill="#BDBDBD"/>
</svg>
