<svg width="42" height="42" viewBox="0 0 42 42" fill="none" xmlns="http://www.w3.org/2000/svg">
<rect width="42" height="42" rx="17.6667" fill="#292925" fill-opacity="0.1"/>
<path fill-rule="evenodd" clip-rule="evenodd" d="M19.6958 11.2557C19.8105 11.3028 19.9086 11.3829 19.9776 11.4859C20.0466 11.5889 20.0834 11.71 20.0833 11.834V12.649L20.9858 12.6482H21.0483C22.775 12.6482 24.1358 12.6482 25.1992 12.7932C26.2908 12.9423 27.1625 13.2548 27.8467 13.949C28.53 14.6423 28.8358 15.524 28.9825 16.6273C29.125 17.7048 29.125 19.0857 29.125 20.8398V20.934C29.125 22.6882 29.125 24.0682 28.9825 25.1457C28.8358 26.2507 28.53 27.1307 27.8467 27.824C27.1633 28.519 26.2917 28.8315 25.1992 28.9807C24.1358 29.1257 22.775 29.1257 21.0483 29.1257H20.9517C19.225 29.1257 17.8642 29.1257 16.8008 28.9807C15.7092 28.8307 14.8375 28.519 14.1533 27.824C13.47 27.1307 13.1642 26.2507 13.0175 25.1457C12.875 24.0682 12.875 22.6882 12.875 20.934V20.8398C12.875 19.0848 12.875 17.7048 13.0175 16.6273C13.1642 15.5232 13.47 14.6423 14.1533 13.949C14.2106 13.889 14.2792 13.8411 14.3552 13.8079C14.4312 13.7747 14.513 13.757 14.5959 13.7557C14.6788 13.7545 14.7611 13.7698 14.8381 13.8006C14.915 13.8315 14.9851 13.8774 15.0441 13.9356C15.1031 13.9938 15.15 14.0632 15.182 14.1397C15.2139 14.2162 15.2304 14.2983 15.2303 14.3812C15.2302 14.4641 15.2137 14.5462 15.1816 14.6226C15.1495 14.6991 15.1025 14.7684 15.0433 14.8265C14.6283 15.2482 14.385 15.8223 14.2567 16.7915C14.1267 17.7773 14.125 19.0748 14.125 20.8865C14.125 22.699 14.1267 23.9957 14.2567 24.9823C14.385 25.9507 14.6283 26.5257 15.0433 26.9473C15.4575 27.3673 16.02 27.6123 16.97 27.7423C17.9392 27.874 19.2142 27.8757 21 27.8757C22.7858 27.8757 24.0608 27.874 25.03 27.7423C25.98 27.6123 26.5425 27.3673 26.9567 26.9473C27.3717 26.5257 27.615 25.9507 27.7433 24.9823C27.8742 23.9957 27.875 22.699 27.875 20.8865C27.875 19.0748 27.8733 17.7782 27.7433 16.7915C27.615 15.8223 27.3717 15.2482 26.9567 14.8265C26.5425 14.4065 25.9808 14.1615 25.03 14.0315C24.0608 13.899 22.7858 13.8982 21 13.8982H20.0833V14.7957C20.0832 14.9196 20.0463 15.0407 19.9772 15.1436C19.9081 15.2465 19.8099 15.3265 19.6953 15.3735C19.5806 15.4205 19.4545 15.4323 19.3331 15.4074C19.2117 15.3826 19.1004 15.3222 19.0133 15.234L17.555 13.7532C17.44 13.6362 17.3755 13.4788 17.3755 13.3148C17.3755 13.1508 17.44 12.9934 17.555 12.8765L19.0133 11.3957C19.1004 11.3072 19.2117 11.2467 19.3333 11.2217C19.4548 11.1968 19.581 11.2086 19.6958 11.2557Z" fill="#292925"/>
<path d="M24.358 19.3577C24.4684 19.2392 24.5285 19.0825 24.5256 18.9206C24.5228 18.7587 24.4572 18.6042 24.3427 18.4897C24.2281 18.3752 24.0737 18.3096 23.9117 18.3067C23.7498 18.3039 23.5931 18.364 23.4746 18.4744L19.7496 22.1994L18.5246 20.9744C18.4674 20.913 18.3984 20.8637 18.3218 20.8296C18.2451 20.7954 18.1623 20.777 18.0784 20.7756C17.9945 20.7741 17.9111 20.7895 17.8333 20.8209C17.7555 20.8524 17.6848 20.8992 17.6254 20.9585C17.5661 21.0179 17.5193 21.0886 17.4879 21.1664C17.4564 21.2442 17.441 21.3276 17.4425 21.4115C17.444 21.4954 17.4623 21.5782 17.4965 21.6548C17.5306 21.7315 17.5799 21.8005 17.6413 21.8577L19.308 23.5244C19.4252 23.6414 19.584 23.7072 19.7496 23.7072C19.9153 23.7072 20.0741 23.6414 20.1913 23.5244L24.358 19.3577Z" fill="#292925"/>
</svg>
