<svg width="16" height="17" viewBox="0 0 16 17" fill="none" xmlns="http://www.w3.org/2000/svg">
<path d="M12 14.0001V3.00006C12 2.44778 11.5523 2.00006 11 2.00006L5 2.00006C4.44772 2.00006 4 2.44778 4 3.00006L4 14.0001C4 14.5523 4.44772 15.0001 5 15.0001H11C11.5523 15.0001 12 14.5523 12 14.0001Z" stroke="#8F8F8F" stroke-linecap="round" stroke-linejoin="round"/>
<path d="M8 5.00006C8.41421 5.00006 8.75 4.66427 8.75 4.25006C8.75 3.83585 8.41421 3.50006 8 3.50006C7.58579 3.50006 7.25 3.83585 7.25 4.25006C7.25 4.66427 7.58579 5.00006 8 5.00006Z" fill="#8F8F8F"/>
</svg>
