<svg width="42" height="42" viewBox="0 0 42 42" fill="none" xmlns="http://www.w3.org/2000/svg">
<rect width="42" height="42" rx="17.6667" fill="#292925" fill-opacity="0.1"/>
<path d="M20.1663 15.25V14.3333C20.1663 14.0972 20.2463 13.8994 20.4063 13.74C20.5663 13.5806 20.7641 13.5006 20.9997 13.5C21.2352 13.4994 21.4333 13.5794 21.5938 13.74C21.7544 13.9006 21.8341 14.0983 21.833 14.3333V15.2083C22.2497 15.2917 22.6422 15.4411 23.0105 15.6567C23.3788 15.8722 23.7016 16.1394 23.9788 16.4583C24.1316 16.6528 24.1977 16.8647 24.1772 17.0942C24.1566 17.3236 24.0488 17.5144 23.8538 17.6667C23.6588 17.8189 23.4469 17.885 23.218 17.865C22.9891 17.845 22.7983 17.7372 22.6455 17.5417C22.4511 17.3056 22.215 17.1217 21.9372 16.99C21.6594 16.8583 21.3608 16.7922 21.0413 16.7917C20.8886 16.7917 20.7394 16.8125 20.5938 16.8542C20.4483 16.8958 20.3058 16.9514 20.1663 17.0208C19.9441 17.1181 19.7255 17.125 19.5105 17.0417C19.2955 16.9583 19.1391 16.8056 19.0413 16.5833C18.9436 16.3611 18.9366 16.1422 19.0205 15.9267C19.1044 15.7111 19.2572 15.555 19.4788 15.4583C19.59 15.4028 19.7047 15.3611 19.823 15.3333C19.9413 15.3056 20.0558 15.2778 20.1663 15.25ZM26.9163 29.25L23.6663 26C23.458 26.2083 23.1733 26.3786 22.8122 26.5108C22.4511 26.6431 22.1247 26.7228 21.833 26.75V27.6667C21.833 27.9028 21.753 28.1008 21.593 28.2608C21.433 28.4208 21.2352 28.5006 20.9997 28.5C20.7641 28.4994 20.5663 28.4194 20.4063 28.26C20.2463 28.1006 20.1663 27.9028 20.1663 27.6667V26.7083C19.5552 26.5556 19.0205 26.3019 18.5622 25.9475C18.1038 25.5931 17.7358 25.1522 17.458 24.625C17.3469 24.4028 17.3261 24.1736 17.3955 23.9375C17.465 23.7014 17.6108 23.5278 17.833 23.4167C18.0691 23.3056 18.3019 23.2917 18.5313 23.375C18.7608 23.4583 18.9377 23.6111 19.0622 23.8333C19.2705 24.2222 19.5516 24.5417 19.9055 24.7917C20.2594 25.0417 20.6797 25.1667 21.1663 25.1667C21.4163 25.1667 21.6455 25.1356 21.8538 25.0733C22.0622 25.0111 22.2636 24.9172 22.458 24.7917L12.7497 15.0833C12.5969 14.9306 12.5205 14.7361 12.5205 14.5C12.5205 14.2639 12.5969 14.0694 12.7497 13.9167C12.9025 13.7639 13.0969 13.6875 13.333 13.6875C13.5691 13.6875 13.7636 13.7639 13.9163 13.9167L28.083 28.0833C28.2358 28.2361 28.3122 28.4306 28.3122 28.6667C28.3122 28.9028 28.2358 29.0972 28.083 29.25C27.9302 29.4028 27.7358 29.4792 27.4997 29.4792C27.2636 29.4792 27.0691 29.4028 26.9163 29.25Z" fill="#292925"/>
</svg>
