<svg width="20" height="20" viewBox="0 0 20 20" fill="none" xmlns="http://www.w3.org/2000/svg">
<path d="M10.0162 17.1086C8.07457 17.1086 6.1329 16.8003 4.29123 16.1836C3.59123 15.9419 3.0579 15.4503 2.82457 14.8086C2.5829 14.1669 2.66623 13.4586 3.04957 12.8253L4.0079 11.2336C4.2079 10.9003 4.39123 10.2336 4.39123 9.84193V7.43359C4.39123 4.33359 6.91623 1.80859 10.0162 1.80859C13.1162 1.80859 15.6412 4.33359 15.6412 7.43359V9.84193C15.6412 10.2253 15.8246 10.9003 16.0246 11.2419L16.9746 12.8253C17.3329 13.4253 17.3996 14.1503 17.1579 14.8086C17.0399 15.1307 16.8503 15.4218 16.6035 15.6599C16.3567 15.8981 16.059 16.0772 15.7329 16.1836C13.8996 16.8003 11.9579 17.1086 10.0162 17.1086ZM10.0162 3.05859C7.6079 3.05859 5.64123 5.01693 5.64123 7.43359V9.84193C5.64123 10.4503 5.39123 11.3503 5.0829 11.8753L4.12457 13.4669C3.94123 13.7753 3.89123 14.1003 3.99957 14.3753C4.09957 14.6586 4.34957 14.8753 4.69123 14.9919C8.14824 16.1586 11.8926 16.1586 15.3496 14.9919C15.6496 14.8919 15.8829 14.6669 15.9912 14.3669C16.0996 14.0669 16.0746 13.7419 15.9079 13.4669L14.9496 11.8753C14.6329 11.3336 14.3912 10.4419 14.3912 9.8336V7.43359C14.3912 5.01693 12.4329 3.05859 10.0162 3.05859Z" fill="#212121"/>
<path d="M11.5666 3.28244C11.5083 3.28244 11.4499 3.2741 11.3916 3.25744C11.1499 3.19077 10.9166 3.14077 10.6916 3.10744C9.98326 3.01577 9.29993 3.06577 8.65826 3.25744C8.42493 3.33244 8.17493 3.25744 8.01659 3.08244C7.9377 2.9962 7.88487 2.88936 7.86422 2.77432C7.84357 2.65927 7.85595 2.54073 7.89993 2.43244C8.06584 2.00414 8.35779 1.63624 8.73719 1.37735C9.1166 1.11846 9.56561 0.980763 10.0249 0.982437C10.9749 0.982437 11.8083 1.5491 12.1499 2.43244C12.2333 2.65744 12.1916 2.90744 12.0333 3.08244C11.9083 3.21577 11.7333 3.28244 11.5666 3.28244Z" fill="#212121"/>
<path d="M10.0166 19.0059C9.1916 19.0059 8.3916 18.6725 7.80827 18.0892C7.22493 17.5059 6.8916 16.7059 6.8916 15.8809H8.1416C8.1416 16.3725 8.3416 16.8559 8.6916 17.2059C9.0416 17.5559 9.52493 17.7559 10.0166 17.7559C11.0499 17.7559 11.8916 16.9142 11.8916 15.8809H13.1416C13.1416 17.6059 11.7416 19.0059 10.0166 19.0059Z" fill="#212121"/>
</svg>
