<svg width="20" height="20" viewBox="0 0 20 20" fill="none" xmlns="http://www.w3.org/2000/svg">
<path d="M9.58366 18.1243C4.87533 18.1243 1.04199 14.291 1.04199 9.58268C1.04199 4.87435 4.87533 1.04102 9.58366 1.04102C14.292 1.04102 18.1253 4.87435 18.1253 9.58268C18.1253 14.291 14.292 18.1243 9.58366 18.1243ZM9.58366 2.29102C5.55866 2.29102 2.29199 5.56602 2.29199 9.58268C2.29199 13.5993 5.55866 16.8743 9.58366 16.8743C13.6087 16.8743 16.8753 13.5993 16.8753 9.58268C16.8753 5.56602 13.6087 2.29102 9.58366 2.29102Z" fill="#212121"/>
<path d="M18.3337 18.9576C18.1754 18.9576 18.017 18.8992 17.892 18.7742L16.2254 17.1076C16.1091 16.9899 16.0439 16.8312 16.0439 16.6659C16.0439 16.5005 16.1091 16.3418 16.2254 16.2242C16.467 15.9826 16.867 15.9826 17.1087 16.2242L18.7754 17.8909C19.017 18.1326 19.017 18.5326 18.7754 18.7742C18.6504 18.8992 18.492 18.9576 18.3337 18.9576Z" fill="#212121"/>
</svg>
