<svg width="71" height="71" viewBox="0 0 71 71" fill="none" xmlns="http://www.w3.org/2000/svg">
<rect x="1.45" y="1.45" width="68.309" height="68.309" rx="34.1545" stroke="#A0C077" stroke-width="1.1"/>
<path fill-rule="evenodd" clip-rule="evenodd" d="M14.8408 35.7077C14.8408 24.0031 24.3293 14.5146 36.0339 14.5146C47.7384 14.5146 57.227 24.0031 57.227 35.7077C57.227 47.4121 47.7384 56.9007 36.0339 56.9007C24.3293 56.9007 14.8408 47.4121 14.8408 35.7077ZM36.0339 17.5546C26.0082 17.5546 17.8808 25.6821 17.8808 35.7077C17.8808 40.4184 19.6751 44.71 22.6176 47.9363C25.4447 43.5199 30.3965 40.5881 36.0351 40.5881C41.673 40.5881 46.6241 43.5192 49.4517 47.9347C52.3931 44.7087 54.187 40.4176 54.187 35.7077C54.187 25.6821 46.0593 17.5546 36.0339 17.5546ZM47.1761 50.0399C44.9429 46.2025 40.7886 43.6281 36.0351 43.6281C31.281 43.6281 27.1263 46.2031 24.8934 50.0412C27.9688 52.4351 31.8349 53.8607 36.0339 53.8607C40.2336 53.8607 44.1003 52.4345 47.1761 50.0399ZM28.5143 32.5237C28.5143 28.3705 31.8812 25.0037 36.0343 25.0037C40.1875 25.0037 43.5543 28.3705 43.5543 32.5237C43.5543 36.6769 40.1875 40.0437 36.0343 40.0437C31.8812 40.0437 28.5143 36.6769 28.5143 32.5237ZM36.0343 28.0437C33.5601 28.0437 31.5543 30.0494 31.5543 32.5237C31.5543 34.9979 33.5601 37.0037 36.0343 37.0037C38.5086 37.0037 40.5143 34.9979 40.5143 32.5237C40.5143 30.0494 38.5086 28.0437 36.0343 28.0437Z" fill="#1B9D2F"/>
</svg>
