<svg width="24" height="24" viewBox="0 0 24 24" fill="none" xmlns="http://www.w3.org/2000/svg">
<path d="M3.49993 7.99983C3.50013 7.05174 3.7454 6.11981 4.21195 5.29446C4.67849 4.46911 5.35047 3.77838 6.16267 3.2893C6.97486 2.80021 7.89969 2.52938 8.84741 2.50309C9.79514 2.4768 10.7336 2.69594 11.5716 3.13925C12.4097 3.58256 13.1189 4.23497 13.6305 5.03319C14.1421 5.8314 14.4386 6.74831 14.4914 7.69492C14.5442 8.64154 14.3513 9.58572 13.9316 10.4358C13.5119 11.286 12.8795 12.0131 12.0959 12.5468C13.7834 13.1658 15.2471 14.2755 16.2986 15.7333C17.35 17.1911 17.9412 18.9302 17.9959 20.7268C17.9936 20.9205 17.9165 21.1058 17.7808 21.244C17.645 21.3823 17.4611 21.4627 17.2675 21.4685C17.0739 21.4743 16.8855 21.405 16.7417 21.2752C16.5979 21.1454 16.5099 20.965 16.4959 20.7718C16.4364 18.8233 15.6205 16.9745 14.2211 15.6172C12.8217 14.26 10.9489 13.5009 8.99943 13.5009C7.04997 13.5009 5.17712 14.26 3.77776 15.6172C2.37839 16.9745 1.56248 18.8233 1.50293 20.7718C1.49292 20.9677 1.40661 21.1518 1.26249 21.2848C1.11837 21.4177 0.927906 21.489 0.731901 21.4832C0.535896 21.4775 0.34994 21.3952 0.213869 21.254C0.0777983 21.1128 0.00243635 20.9239 0.00392798 20.7278C0.0584793 18.9311 0.649535 17.1917 1.70101 15.7337C2.75249 14.2758 4.21627 13.1658 5.90393 12.5468C5.16301 12.0422 4.55666 11.3641 4.13766 10.5717C3.71867 9.77916 3.49974 8.89627 3.49993 7.99983ZM8.99993 3.99983C7.93906 3.99983 6.92165 4.42126 6.1715 5.1714C5.42136 5.92155 4.99993 6.93896 4.99993 7.99983C4.99993 9.0607 5.42136 10.0781 6.1715 10.8283C6.92165 11.5784 7.93906 11.9998 8.99993 11.9998C10.0608 11.9998 11.0782 11.5784 11.8284 10.8283C12.5785 10.0781 12.9999 9.0607 12.9999 7.99983C12.9999 6.93896 12.5785 5.92155 11.8284 5.1714C11.0782 4.42126 10.0608 3.99983 8.99993 3.99983ZM17.2899 7.99983C17.1426 7.99983 16.9979 8.00983 16.8559 8.02983C16.7568 8.04758 16.6551 8.04518 16.5569 8.02278C16.4587 8.00037 16.366 7.95842 16.2844 7.89942C16.2028 7.84042 16.1339 7.76558 16.0818 7.67937C16.0297 7.59316 15.9955 7.49734 15.9813 7.39764C15.967 7.29793 15.973 7.19638 15.9989 7.09903C16.0247 7.00169 16.0699 6.91055 16.1318 6.83106C16.1936 6.75156 16.2708 6.68534 16.3588 6.63633C16.4468 6.58733 16.5438 6.55655 16.6439 6.54583C17.6385 6.40203 18.6527 6.59303 19.5268 7.08875C20.4009 7.58448 21.0854 8.3568 21.4725 9.28416C21.8596 10.2115 21.9274 11.2413 21.6652 12.2114C21.4029 13.1815 20.8256 14.0368 20.0239 14.6428C21.2023 15.1705 22.2028 16.0278 22.9048 17.1115C23.6068 18.1951 23.9802 19.4587 23.9799 20.7498C23.9799 20.9487 23.9009 21.1395 23.7603 21.2802C23.6196 21.4208 23.4288 21.4998 23.2299 21.4998C23.031 21.4998 22.8403 21.4208 22.6996 21.2802C22.5589 21.1395 22.4799 20.9487 22.4799 20.7498C22.4803 19.6339 22.1209 18.5475 21.4552 17.6519C20.7894 16.7562 19.8527 16.0991 18.7839 15.7778L18.2499 15.6178V13.9418L18.6599 13.7328C19.2677 13.425 19.754 12.9213 20.0402 12.3031C20.3265 11.6849 20.3961 10.9882 20.2378 10.3256C20.0794 9.66297 19.7024 9.07304 19.1675 8.65106C18.6327 8.22907 17.9712 7.99965 17.2899 7.99983Z" fill="#292925"/>
</svg>
