<svg width="17" height="16" viewBox="0 0 17 16" fill="none" xmlns="http://www.w3.org/2000/svg">
<path d="M15.6114 6.09506L10.9669 5.42005L8.89069 1.21087C8.83398 1.09563 8.74069 1.00233 8.62545 0.945627C8.33642 0.802943 7.9852 0.921846 7.84069 1.21087L5.76447 5.42005L1.11997 6.09506C0.991917 6.11335 0.874844 6.17372 0.785209 6.26518C0.676847 6.37656 0.617134 6.52641 0.619192 6.68179C0.62125 6.83717 0.684911 6.98538 0.796185 7.09385L4.15655 10.3701L3.36265 14.9964C3.34403 15.104 3.35594 15.2147 3.39702 15.3158C3.43811 15.417 3.50672 15.5047 3.59509 15.5689C3.68345 15.6331 3.78804 15.6712 3.89697 15.679C4.00591 15.6867 4.11485 15.6638 4.21143 15.6128L8.36569 13.4287L12.52 15.6128C12.6334 15.6732 12.7651 15.6933 12.8913 15.6714C13.2096 15.6165 13.4236 15.3146 13.3687 14.9964L12.5748 10.3701L15.9352 7.09385C16.0267 7.00421 16.087 6.88714 16.1053 6.75909C16.1547 6.43897 15.9315 6.14262 15.6114 6.09506Z" fill="#F57E20"/>
</svg>
