<svg width="43" height="23" viewBox="0 0 43 23" fill="none" xmlns="http://www.w3.org/2000/svg">
<path d="M9.92736 21.3262H33.9594C38.3698 21.3262 41.9434 16.8482 41.9434 11.3262C41.9434 5.80313 38.369 1.32617 33.9594 1.32617H9.92736C5.51856 1.32617 1.94336 5.80313 1.94336 11.3262C1.94336 16.8482 5.51856 21.3262 9.92736 21.3262Z" fill="white"/>
<path d="M11.9444 21.3272C17.4678 21.3272 21.9454 16.8496 21.9454 11.3262C21.9454 5.80279 17.4678 1.3252 11.9444 1.3252C6.42096 1.3252 1.94336 5.80279 1.94336 11.3262C1.94336 16.8496 6.42096 21.3272 11.9444 21.3272Z" fill="#E0E0E0"/>
<path d="M4.94141 18.3979C8.84641 22.3029 15.1794 22.3029 19.0844 18.3979C22.9894 14.4929 22.9904 8.15991 19.0844 4.25391" fill="#BDBDBD"/>
<path d="M9.92736 21.3262H33.9594C38.3698 21.3262 41.9434 16.8482 41.9434 11.3262C41.9434 5.80313 38.369 1.32617 33.9594 1.32617H9.92736C5.51856 1.32617 1.94336 5.80313 1.94336 11.3262C1.94336 16.8482 5.51856 21.3262 9.92736 21.3262Z" stroke="black" stroke-width="2" stroke-miterlimit="10" stroke-linecap="round" stroke-linejoin="round"/>
<path d="M11.9444 21.3272C17.4678 21.3272 21.9454 16.8496 21.9454 11.3262C21.9454 5.80279 17.4678 1.3252 11.9444 1.3252C6.42096 1.3252 1.94336 5.80279 1.94336 11.3262C1.94336 16.8496 6.42096 21.3272 11.9444 21.3272Z" stroke="black" stroke-width="2" stroke-miterlimit="10" stroke-linecap="round" stroke-linejoin="round"/>
</svg>
