<svg width="43" height="23" viewBox="0 0 43 23" fill="none" xmlns="http://www.w3.org/2000/svg">
<path d="M9.91369 21.5001H33.9457C38.3561 21.5001 41.9297 17.0221 41.9297 11.5001C41.9297 5.97701 38.3553 1.50006 33.9457 1.50006H9.91369C5.50489 1.50006 1.92969 5.97701 1.92969 11.5001C1.92969 17.0221 5.50489 21.5001 9.91369 21.5001Z" fill="white"/>
<path d="M31.9307 21.5011C37.4541 21.5011 41.9317 17.0235 41.9317 11.5001C41.9317 5.97668 37.4541 1.49908 31.9307 1.49908C26.4073 1.49908 21.9297 5.97668 21.9297 11.5001C21.9297 17.0235 26.4073 21.5011 31.9307 21.5011Z" fill="#01FFCB"/>
<path d="M24.9277 18.5723C28.8327 22.4773 35.1657 22.4773 39.0707 18.5723C42.9757 14.6673 42.9767 8.33428 39.0707 4.42828" fill="#09A172"/>
<path d="M9.91369 21.5001H33.9457C38.3561 21.5001 41.9297 17.0221 41.9297 11.5001C41.9297 5.97701 38.3553 1.50006 33.9457 1.50006H9.91369C5.50489 1.50006 1.92969 5.97701 1.92969 11.5001C1.92969 17.0221 5.50489 21.5001 9.91369 21.5001Z" stroke="black" stroke-width="2" stroke-miterlimit="10" stroke-linecap="round" stroke-linejoin="round"/>
<path d="M31.9307 21.5011C37.4541 21.5011 41.9317 17.0235 41.9317 11.5001C41.9317 5.97668 37.4541 1.49908 31.9307 1.49908C26.4073 1.49908 21.9297 5.97668 21.9297 11.5001C21.9297 17.0235 26.4073 21.5011 31.9307 21.5011Z" stroke="black" stroke-width="2" stroke-miterlimit="10" stroke-linecap="round" stroke-linejoin="round"/>
</svg>
