<svg width="50" height="50" viewBox="0 0 50 50" fill="none" xmlns="http://www.w3.org/2000/svg">
<rect width="50" height="50" rx="17.6667" fill="#FFC334" fill-opacity="0.1"/>
<path d="M12.9424 36.9996C14.5618 36.9996 15.8851 35.5497 15.8851 33.7751V13H33.0672V33.7751C33.0672 35.5497 31.744 36.9996 30.1245 36.9996" fill="#F57E20"/>
<path d="M27.1821 33.7755V31.3301H10V33.7755C10 35.55 11.3232 37 12.9427 37H30.1248C28.5053 37 27.1821 35.55 27.1821 33.7755Z" fill="#DA792C"/>
<path d="M21.158 17.1328H18.9658V18.1716H21.158V17.1328Z" fill="white"/>
<path d="M29.592 17.1328H22.8574V18.1716H29.592V17.1328Z" fill="white"/>
<path d="M21.158 20.8125H18.9658V21.8513H21.158V20.8125Z" fill="white"/>
<path d="M29.592 20.8125H22.8574V21.8513H29.592V20.8125Z" fill="white"/>
<path d="M21.158 24.4922H18.9658V25.5309H21.158V24.4922Z" fill="white"/>
<path d="M29.592 24.4922H22.8574V25.5309H29.592V24.4922Z" fill="white"/>
<path d="M21.158 28.1719H18.9658V29.2106H21.158V28.1719Z" fill="white"/>
<path d="M29.592 28.1719H22.8574V29.2106H29.592V28.1719Z" fill="white"/>
<path opacity="0.1" d="M33.0682 28.3437V15.9868C32.8312 15.9435 32.5745 15.9219 32.3178 15.9219C29.1776 15.9219 26.6299 18.7135 26.6299 22.1544C26.6299 25.5953 29.1776 28.3869 32.3178 28.3869C32.5745 28.4086 32.8312 28.3869 33.0682 28.3437Z" fill="#0C1E5B"/>
<path d="M34.3129 27.1527C37.4543 27.1527 40.0009 24.3623 40.0009 20.9201C40.0009 17.4779 37.4543 14.6875 34.3129 14.6875C31.1716 14.6875 28.625 17.4779 28.625 20.9201C28.625 24.3623 31.1716 27.1527 34.3129 27.1527Z" fill="#2FBE5F"/>
<path d="M35.3184 21.3561V17.4824H33.3039V21.3561H31.9609L34.3111 24.3642L36.6613 21.3561H35.3184Z" fill="white"/>
</svg>
