<svg width="33" height="28" viewBox="0 0 33 28" fill="none" xmlns="http://www.w3.org/2000/svg">
<path d="M13.0587 0L0 5.70244L13.0587 11.4049L26.1175 5.70244L13.0587 0Z" fill="#F57E20"/>
<path d="M7.75865 2.33008L5.30078 3.37933L18.3595 9.10457L20.796 8.03252L7.75865 2.33008Z" fill="#F7C604"/>
<path d="M0 5.70117V21.4171L13.0587 27.1195V11.4036L0 5.70117Z" fill="#DA792C"/>
<path d="M26.1173 5.70117V21.4171L13.0586 27.1195V11.4036L26.1173 5.70117Z" fill="#FB9443"/>
<path opacity="0.1" d="M26.1202 13.7306C25.7355 13.6394 25.3508 13.5938 24.9447 13.5938C21.7815 13.5938 19.2168 16.3309 19.2168 19.7068C19.2168 21.2806 19.7725 22.7177 20.6915 23.7897L26.1202 21.4175V13.7306Z" fill="#0C1E5B"/>
<path d="M18.3584 9.0994V15.6914L20.7949 14.6194V8.02734L18.3584 9.0994Z" fill="#F7C604"/>
<path d="M27.2718 25.3647C30.4353 25.3647 32.9997 22.6278 32.9997 19.2517C32.9997 15.8756 30.4353 13.1387 27.2718 13.1387C24.1084 13.1387 21.5439 15.8756 21.5439 19.2517C21.5439 22.6278 24.1084 25.3647 27.2718 25.3647Z" fill="#2FBE5F"/>
<path d="M26.6747 21.6258C26.5037 21.6258 26.3541 21.5573 26.2258 21.4205L24.4092 19.4817C24.1527 19.2079 24.1527 18.7746 24.4092 18.5236C24.6656 18.2499 25.0717 18.2499 25.3068 18.5236L26.6747 19.9835L29.2394 17.2463C29.4959 16.9726 29.9019 16.9726 30.137 17.2463C30.3935 17.52 30.3935 17.9534 30.137 18.2043L27.1235 21.4205C26.9953 21.5573 26.8456 21.6258 26.6747 21.6258Z" fill="white"/>
<path d="M4.23376 19.2955L2.82316 16.1934L1.49805 18.0409L2.22472 18.3831V20.3904L3.40022 20.9606V18.9305L4.23376 19.2955Z" fill="#F2F5F3"/>
</svg>
