<svg width="51" height="50" viewBox="0 0 51 50" fill="none" xmlns="http://www.w3.org/2000/svg">
<rect x="0.25" width="50" height="50" rx="17.6667" fill="#FFC334" fill-opacity="0.1"/>
<g clip-path="url(#clip0_130_4278)">
<path d="M25.5193 37.3748H18.9813L18.062 33.5354C16.522 32.9006 14.6017 31.7988 13.2612 30.5606L12.917 30.2421V22.2092H15.1733L16.2852 20.4867L14.8292 17.1067L16.1522 16.8196C17.4518 16.5401 19.1505 16.6105 20.8118 17.4609L20.8352 17.449C21.1092 17.2971 21.3861 17.1498 21.6658 17.007C22.2341 16.7093 22.8199 16.4413 23.4205 16.2043C23.9537 16.0038 24.4612 15.8359 24.9535 15.6973C24.3024 17.4521 24.4238 19.3747 25.2912 21.0469C26.1586 22.7191 27.702 24.0056 29.5856 24.6267C31.4692 25.2478 33.5408 25.1532 35.3497 24.3635C37.1586 23.5738 38.5586 22.1529 39.2452 20.4098L39.3537 20.5831C42.2295 25.2068 41.0162 30.9788 36.7567 34.2948L36.0193 37.3758H29.4813L28.9622 35.2092H26.0385L25.5193 37.3748ZM18.167 25.4581H20.505V23.2871H18.167V25.4581Z" fill="#FD9D24"/>
<path d="M32.167 13C33.5594 13 34.8947 13.5136 35.8793 14.4279C36.8639 15.3421 37.417 16.5821 37.417 17.875C37.417 19.1679 36.8639 20.4079 35.8793 21.3221C34.8947 22.2364 33.5594 22.75 32.167 22.75C30.7746 22.75 29.4392 22.2364 28.4547 21.3221C27.4701 20.4079 26.917 19.1679 26.917 17.875C26.917 16.5821 27.4701 15.3421 28.4547 14.4279C29.4392 13.5136 30.7746 13 32.167 13Z" fill="#FD9D24"/>
</g>
<defs>
<clipPath id="clip0_130_4278">
<rect width="28" height="26" fill="white" transform="translate(12.917 13)"/>
</clipPath>
</defs>
</svg>
