<svg width="51" height="50" viewBox="0 0 51 50" fill="none" xmlns="http://www.w3.org/2000/svg">
<g clip-path="url(#clip0_130_4232)">
<rect x="0.5" width="50" height="50" rx="17.6667" fill="#FFC334" fill-opacity="0.1"/>
<path d="M16.9424 36.3089C18.5618 36.3089 19.8849 34.9007 19.8849 33.1773V13H37.0663V33.1773C37.0663 34.9007 35.7431 36.3089 34.1237 36.3089" fill="#F57E20"/>
<path d="M31.1813 33.1758V30.8008H14V33.1758C14 34.8993 15.3232 36.3075 16.9426 36.3075H34.1239C32.5045 36.3075 31.1813 34.8993 31.1813 33.1758Z" fill="#DA792C"/>
<path d="M25.1569 17.0156H22.9648V18.0245H25.1569V17.0156Z" fill="#F3F2F7"/>
<path d="M33.5888 17.0156H26.8545V18.0245H33.5888V17.0156Z" fill="#F3F2F7"/>
<path d="M25.1569 20.584H22.9648V21.5928H25.1569V20.584Z" fill="#F3F2F7"/>
<path d="M33.5888 20.584H26.8545V21.5928H33.5888V20.584Z" fill="#F3F2F7"/>
<path d="M25.1569 24.1641H22.9648V25.1729H25.1569V24.1641Z" fill="#F3F2F7"/>
<path d="M33.5888 24.1641H26.8545V25.1729H33.5888V24.1641Z" fill="#F3F2F7"/>
<path d="M25.1569 27.7344H22.9648V28.7432H25.1569V27.7344Z" fill="#F3F2F7"/>
<path d="M33.5888 27.7344H26.8545V28.7432H33.5888V27.7344Z" fill="#F3F2F7"/>
<path opacity="0.1" d="M37.0679 27.9003V15.899C36.831 15.857 36.5742 15.8359 36.3175 15.8359C33.1775 15.8359 30.6299 18.5473 30.6299 21.8891C30.6299 25.231 33.1775 27.9423 36.3175 27.9423C36.5742 27.9633 36.831 27.9423 37.0679 27.9003Z" fill="#0C1E5B"/>
<path d="M38.3127 26.7471C41.4539 26.7471 44.0003 24.037 44.0003 20.6939C44.0003 17.3508 41.4539 14.6406 38.3127 14.6406C35.1715 14.6406 32.625 17.3508 32.625 20.6939C32.625 24.037 35.1715 26.7471 38.3127 26.7471Z" fill="#EB5757"/>
</g>
<defs>
<clipPath id="clip0_130_4232">
<rect x="0.5" width="50" height="50" rx="17.6667" fill="white"/>
</clipPath>
</defs>
</svg>
