<svg width="20" height="20" viewBox="0 0 20 20" fill="none" xmlns="http://www.w3.org/2000/svg">
<path d="M19 4.8455C19 3.8025 19 3.2805 18.717 2.8875C18.434 2.4945 17.939 2.3295 16.949 1.9995L15.784 1.6115C14.417 1.1555 13.734 0.9275 13.045 1.0205C12.357 1.1125 11.757 1.5115 10.558 2.3105L9.176 3.2325C8.24 3.8565 7.772 4.1685 7.246 4.2925C7.05345 4.33847 6.85683 4.36527 6.659 4.3725C6.119 4.3905 5.586 4.2125 4.519 3.8565C3.121 3.3905 2.422 3.1575 1.89 3.3945C1.70147 3.47838 1.53228 3.60025 1.393 3.7525C1 4.1835 1 4.9195 1 6.3935V10.4585M19 8.6835V12.9735C19 14.4475 19 15.1845 18.607 15.6135C18.4679 15.7665 18.2987 15.889 18.11 15.9735C17.578 16.2095 16.879 15.9765 15.481 15.5105C14.414 15.1545 13.881 14.9765 13.341 14.9955C13.1429 15.002 12.9459 15.0281 12.753 15.0735C12.228 15.1985 11.76 15.5105 10.824 16.1335L9.442 17.0555C8.242 17.8555 7.643 18.2555 6.955 18.3465C6.267 18.4395 5.583 18.2115 4.216 17.7555L3.051 17.3675C2.061 17.0375 1.566 16.8725 1.283 16.4795C1.015 16.1075 1.001 15.6195 1 14.6835M13 1.1835V4.6835M13 14.6835V8.6835M7 18.1835V14.6835M7 4.6835V10.6835" stroke="#1E1E1E" stroke-width="1.5" stroke-linecap="round"/>
</svg>
