<svg width="24" height="24" viewBox="0 0 24 24" fill="none" xmlns="http://www.w3.org/2000/svg">
<path d="M19.5 7H18V6C17.9992 5.20459 17.6829 4.44199 17.1204 3.87956C16.558 3.31712 15.7954 3.00079 15 3H4.5C3.83696 3 3.20107 3.26339 2.73223 3.73223C2.26339 4.20107 2 4.83696 2 5.5V18C2.00079 18.7954 2.31712 19.558 2.87956 20.1204C3.44199 20.6829 4.20459 20.9992 5 21H19.5C20.163 21 20.7989 20.7366 21.2678 20.2678C21.7366 19.7989 22 19.163 22 18.5V9.5C22 8.83696 21.7366 8.20107 21.2678 7.73223C20.7989 7.26339 20.163 7 19.5 7ZM4.5 4H15C15.5302 4.00079 16.0384 4.21176 16.4133 4.58666C16.7882 4.96156 16.9992 5.46981 17 6V7H4.5C4.30302 7 4.10796 6.9612 3.92597 6.88582C3.74399 6.81044 3.57863 6.69995 3.43934 6.56066C3.30005 6.42137 3.18956 6.25601 3.11418 6.07403C3.0388 5.89204 3 5.69698 3 5.5C3 5.30302 3.0388 5.10796 3.11418 4.92597C3.18956 4.74399 3.30005 4.57863 3.43934 4.43934C3.57863 4.30005 3.74399 4.18956 3.92597 4.11418C4.10796 4.0388 4.30302 4 4.5 4ZM21 16H19C18.4696 16 17.9609 15.7893 17.5858 15.4142C17.2107 15.0391 17 14.5304 17 14C17 13.4696 17.2107 12.9609 17.5858 12.5858C17.9609 12.2107 18.4696 12 19 12H21V16ZM21 11H19C18.606 11 18.2159 11.0776 17.8519 11.2284C17.488 11.3791 17.1573 11.6001 16.8787 11.8787C16.6001 12.1573 16.3791 12.488 16.2284 12.8519C16.0776 13.2159 16 13.606 16 14C16 14.394 16.0776 14.7841 16.2284 15.1481C16.3791 15.512 16.6001 15.8427 16.8787 16.1213C17.1573 16.3999 17.488 16.6209 17.8519 16.7716C18.2159 16.9224 18.606 17 19 17H21V18.5C21 18.8978 20.842 19.2794 20.5607 19.5607C20.2794 19.842 19.8978 20 19.5 20H5C4.46981 19.9992 3.96156 19.7882 3.58666 19.4133C3.21176 19.0384 3.00079 18.5302 3 18V7.499C3.432 7.825 3.959 8.001 4.5 8H19.5C19.8978 8 20.2794 8.15804 20.5607 8.43934C20.842 8.72064 21 9.10218 21 9.5V11Z" fill="black"/>
</svg>
