<svg width="21" height="23" viewBox="0 0 21 23" fill="none" xmlns="http://www.w3.org/2000/svg">
<path d="M19.3036 13.6563L18.1781 12.4236C18.3055 12.1355 18.3728 11.8201 18.375 11.5C18.375 11.0735 18.2595 10.6566 18.0432 10.3021C17.8269 9.94746 17.5194 9.67109 17.1597 9.50789C16.7999 9.34468 16.4041 9.30198 16.0222 9.38518C15.6403 9.46838 15.2895 9.67374 15.0141 9.9753C14.7388 10.2769 14.5513 10.6611 14.4753 11.0793C14.3994 11.4976 14.4384 11.9312 14.5874 12.3252C14.7364 12.7192 14.9887 13.0559 15.3125 13.2929C15.6362 13.5298 16.0169 13.6563 16.4062 13.6563C16.6987 13.6539 16.987 13.5803 17.2502 13.4406L18.375 14.6726V20.125H14.4375V17.9688C14.4358 16.635 13.9512 15.3564 13.0901 14.4132C12.229 13.4701 11.0616 12.9394 9.84375 12.9375H5.90625C4.68844 12.9394 3.52101 13.4701 2.6599 14.4132C1.79878 15.3564 1.31424 16.635 1.3125 17.9688V21.5625H19.6875V14.6726C19.6876 14.2914 19.5495 13.9259 19.3036 13.6563ZM2.625 17.9688C2.62604 17.016 2.97208 16.1026 3.58721 15.4288C4.20233 14.7551 5.03633 14.3761 5.90625 14.375H9.84375C10.7137 14.3761 11.5477 14.7551 12.1628 15.4288C12.7779 16.1026 13.124 17.016 13.125 17.9688V20.125H2.625V17.9688Z" fill="#FFFFFF"/>
<path d="M7.875 2.875C8.52397 2.875 9.15837 3.08577 9.69797 3.48066C10.2376 3.87554 10.6581 4.43681 10.9065 5.09348C11.1548 5.75015 11.2198 6.47274 11.0932 7.16986C10.9666 7.86697 10.6541 8.50732 10.1952 9.00991C9.7363 9.51251 9.15164 9.85478 8.51514 9.99345C7.87864 10.1321 7.21889 10.0609 6.61932 9.78894C6.01975 9.51694 5.50729 9.05632 5.14674 8.46533C4.78619 7.87434 4.59375 7.17953 4.59375 6.46875C4.59375 5.51563 4.93945 4.60154 5.55481 3.92759C6.17016 3.25363 7.00476 2.875 7.875 2.875ZM7.875 1.4375C6.96644 1.4375 6.07829 1.73258 5.32285 2.28542C4.56741 2.83826 3.97862 3.62403 3.63093 4.54337C3.28324 5.46271 3.19227 6.47433 3.36952 7.4503C3.54677 8.42626 3.98428 9.32275 4.62673 10.0264C5.26918 10.73 6.08771 11.2092 6.97881 11.4033C7.86991 11.5975 8.79356 11.4978 9.63295 11.117C10.4724 10.7362 11.1898 10.0913 11.6946 9.26396C12.1993 8.43658 12.4688 7.46384 12.4688 6.46875C12.4688 5.13438 11.9848 3.85466 11.1233 2.91112C10.2618 1.96758 9.09334 1.4375 7.875 1.4375Z" fill="#FFFFFF"/>
</svg>
