<!-- <svg width="22" height="22" viewBox="0 0 22 22" fill="none" stroke="#FFFFFF" xmlns="http://www.w3.org/2000/svg">
 --><!-- <path d="M1 11C1 6.28595 1 3.92893 2.46447 2.46447C3.92893 1 6.28595 1 11 1C15.714 1 18.0711 1 19.5355 2.46447C21 3.92893 21 6.28595 21 11C21 15.714 21 18.0711 19.5355 19.5355C18.0711 21 15.714 21 11 21C6.28595 21 3.92893 21 2.46447 19.5355C1 18.0711 1 15.714 1 11Z" stroke="#FFFFFF" stroke-width="1.5"/> -->
<svg width="24" height="24" viewBox="0 0 24 24" fill="none" xmlns="http://www.w3.org/2000/svg">
<path d="M2 12C2 7.28595 2 4.92893 3.46447 3.46447C4.92893 2 7.28595 2 12 2C16.714 2 19.0711 2 20.5355 3.46447C22 4.92893 22 7.28595 22 12C22 16.714 22 19.0711 20.5355 20.5355C19.0711 22 16.714 22 12 22C7.28595 22 4.92893 22 3.46447 20.5355C2 19.0711 2 16.714 2 12Z" stroke="#FFFFFF" stroke-width="1.5"/>
<path d="M7 14L9.29289 11.7071C9.68342 11.3166 10.3166 11.3166 10.7071 11.7071L12.2929 13.2929C12.6834 13.6834 13.3166 13.6834 13.7071 13.2929L17 10M17 10V12.5M17 10H14.5" stroke="#FFFFFF" stroke-width="1.5" stroke-linecap="round" stroke-linejoin="round"/>
</svg>
