<svg width="18" height="18" viewBox="0 0 18 18" fill="none" xmlns="http://www.w3.org/2000/svg">
<path d="M7.5 2.5C7.5 2.36739 7.55268 2.24021 7.64645 2.14645C7.74021 2.05268 7.86739 2 8 2H10C10.1326 2 10.2598 2.05268 10.3536 2.14645C10.4473 2.24021 10.5 2.36739 10.5 2.5C10.5 2.63261 10.4473 2.75979 10.3536 2.85355C10.2598 2.94732 10.1326 3 10 3H8C7.86739 3 7.74021 2.94732 7.64645 2.85355C7.55268 2.75979 7.5 2.63261 7.5 2.5Z" fill="#FFFFFF"/>
<path fill-rule="evenodd" clip-rule="evenodd" d="M13.6823 6.26C13.5008 6.4025 13.2653 6.5165 12.9813 6.609C12.9939 6.73767 13.0003 6.868 13.0003 7C13.0001 7.54163 12.8898 8.07758 12.6763 8.57535C12.4628 9.07312 12.1504 9.52233 11.7581 9.89576C11.3657 10.2692 10.9017 10.559 10.394 10.7478C9.88627 10.9365 9.34553 11.0201 8.80455 10.9936C8.26356 10.9671 7.7336 10.831 7.24678 10.5936C6.75996 10.3561 6.32644 10.0223 5.97249 9.61231C5.61855 9.20233 5.35156 8.72473 5.1877 8.20847C5.02385 7.69222 4.96655 7.14806 5.01928 6.609C4.73528 6.5165 4.49978 6.4025 4.31878 6.26C4.08378 6.075 3.92628 5.828 3.90778 5.531C3.89028 5.2555 3.99928 5.0215 4.10828 4.8565C4.21583 4.70018 4.34361 4.55878 4.48828 4.436C4.55894 4.37467 4.62661 4.32017 4.69128 4.2725C4.67195 4.1695 4.65161 4.04617 4.63028 3.9025C4.54215 3.27219 4.49871 2.63644 4.50028 2C4.50028 1.843 4.56728 1.726 4.59828 1.6765C4.63728 1.614 4.68328 1.5605 4.72528 1.5175C4.80878 1.43 4.91678 1.341 5.03528 1.2555C5.27528 1.0815 5.60528 0.886 5.99728 0.703C6.77878 0.338 7.85228 0 9.00028 0C10.1483 0 11.2218 0.3385 12.0033 0.703C12.3403 0.857063 12.6624 1.04202 12.9653 1.2555C13.0838 1.341 13.1918 1.4305 13.2753 1.5175C13.3173 1.5605 13.3633 1.614 13.4023 1.6765C13.4333 1.726 13.5003 1.843 13.5003 2C13.5003 2.801 13.4353 3.45 13.3703 3.9025C13.3489 4.0465 13.3286 4.16983 13.3093 4.2725C13.3733 4.32 13.4428 4.3745 13.5128 4.436C13.6378 4.5455 13.7808 4.688 13.8923 4.8565C14.0018 5.0215 14.1103 5.2555 14.0933 5.5315C14.0748 5.828 13.9173 6.075 13.6823 6.26ZM5.50128 2.159C5.50878 2.833 5.56478 3.378 5.62028 3.759C5.63361 3.849 5.64628 3.92933 5.65828 4H12.3423C12.3546 3.929 12.3673 3.84867 12.3803 3.759C12.4353 3.378 12.4918 2.833 12.4993 2.159C12.4603 2.12614 12.4201 2.09479 12.3788 2.065C12.1983 1.9345 11.9243 1.77 11.5803 1.6095C10.8888 1.2865 9.96228 1 9.00028 1C8.03828 1 7.11178 1.2865 6.42028 1.6095C6.07628 1.77 5.80228 1.9345 5.62228 2.0645C5.58074 2.0946 5.54038 2.12629 5.50128 2.1595M5.39428 5L5.39278 5.001C5.30646 5.05847 5.2238 5.12126 5.14528 5.189C5.05628 5.267 4.98528 5.343 4.94228 5.409C4.93228 5.42399 4.9231 5.43952 4.91478 5.4555L4.93678 5.474C5.01178 5.533 5.17278 5.6195 5.48678 5.705C5.54878 5.72167 5.61528 5.738 5.68628 5.754L5.69078 5.755C5.94178 5.8105 6.25078 5.86 6.62728 5.899C7.16078 5.9545 7.83228 5.991 8.67128 5.999L9.00028 6C10.6138 6 11.6573 5.8995 12.3103 5.755L12.3143 5.754C12.3856 5.73833 12.4523 5.722 12.5143 5.705C12.8278 5.62 12.9893 5.533 13.0638 5.474L13.0858 5.4555C13.0776 5.43953 13.0686 5.42401 13.0588 5.409C13.0004 5.32745 12.932 5.25354 12.8553 5.189C12.7769 5.12128 12.6944 5.05849 12.6083 5.001L12.6063 5H5.39428ZM8.86428 7C10.1853 7 11.2093 6.93 11.9943 6.808C11.9983 6.87133 12.0003 6.93533 12.0003 7C11.9999 7.40037 11.9194 7.79662 11.7635 8.1654C11.6077 8.53418 11.3795 8.86802 11.0926 9.14726C10.8057 9.4265 10.4658 9.64548 10.0929 9.7913C9.72003 9.93712 9.32174 10.0068 8.9215 9.99631C8.52127 9.9858 8.12719 9.89528 7.76248 9.73008C7.39778 9.56489 7.06983 9.32837 6.79796 9.03445C6.5261 8.74054 6.31581 8.39518 6.1795 8.01872C6.04319 7.64227 5.98361 7.24234 6.00428 6.8425C6.73578 6.9435 7.67328 7 8.86428 7ZM5.03928 16.4385C5.01311 16.6245 5.00008 16.8121 5.00028 17V17.5C5.00033 17.6099 4.96417 17.7168 4.89738 17.8041C4.83059 17.8914 4.73689 17.9542 4.63078 17.9829C4.52468 18.0116 4.41208 18.0045 4.31039 17.9628C4.20871 17.9211 4.12362 17.847 4.06828 17.752C3.73114 17.9343 3.33701 17.9806 2.96678 17.8815L2.00078 17.6225C1.61666 17.5194 1.28921 17.268 1.09043 16.9235C0.891656 16.579 0.837826 16.1697 0.940778 15.7855L1.32878 14.3365C1.43178 13.9523 1.68317 13.6247 2.02767 13.4258C2.37216 13.227 2.78155 13.1731 3.16578 13.276L4.13178 13.5345C4.46778 13.6245 4.74678 13.822 4.94078 14.08C5.40372 13.4358 6.01344 12.9112 6.71946 12.5494C7.42548 12.1877 8.2075 11.9994 9.00078 12C9.79363 11.9996 10.5752 12.1879 11.2808 12.5495C11.9865 12.911 12.5959 13.4353 13.0588 14.079C13.2601 13.8128 13.5444 13.6214 13.8668 13.535L14.8328 13.2765C15.2169 13.1735 15.6263 13.2274 15.9707 13.4262C16.3152 13.6249 16.5667 13.9524 16.6698 14.3365L17.0583 15.786C17.1092 15.9763 17.1222 16.1747 17.0965 16.37C17.0707 16.5653 17.0068 16.7537 16.9083 16.9242C16.8097 17.0948 16.6786 17.2443 16.5223 17.3642C16.366 17.4841 16.1876 17.5721 15.9973 17.623L15.0318 17.8815C14.6622 17.9807 14.2687 17.9349 13.9318 17.7535C13.8763 17.8483 13.7911 17.9222 13.6893 17.9638C13.5876 18.0053 13.475 18.0122 13.369 17.9834C13.263 17.9545 13.1694 17.8915 13.1027 17.8041C13.0361 17.7168 13.0001 17.6099 13.0003 17.5V17C13.0005 16.8121 12.9874 16.6245 12.9613 16.4385L10.3593 17.136C10.2385 17.3945 10.0465 17.6132 9.80577 17.7665C9.56505 17.9197 9.28563 18.0011 9.00028 18.0011C8.71493 18.0011 8.4355 17.9197 8.19479 17.7665C7.95407 17.6132 7.76206 17.3945 7.64128 17.136L5.03928 16.4385ZM7.56028 16.0785C7.62713 15.8504 7.74722 15.6415 7.91065 15.4689C8.07408 15.2964 8.27617 15.1651 8.50028 15.086V13.031C7.79897 13.1197 7.13364 13.3925 6.57186 13.8215C6.01009 14.2506 5.57189 14.8207 5.30178 15.474L7.56028 16.0785ZM12.6988 15.4735C12.4286 14.8203 11.9904 14.2503 11.4286 13.8213C10.8668 13.3923 10.2015 13.1197 9.50028 13.031V15.0855C9.95228 15.2455 10.3053 15.6155 10.4403 16.079L12.6988 15.4735ZM13.7723 15.1135C13.7553 15.0501 13.7509 14.9839 13.7595 14.9188C13.768 14.8537 13.7893 14.7909 13.8222 14.734C13.855 14.6771 13.8987 14.6273 13.9508 14.5873C14.0029 14.5473 14.0623 14.518 14.1258 14.501L15.0918 14.242C15.2198 14.2078 15.3562 14.2258 15.4709 14.2921C15.5857 14.3584 15.6694 14.4675 15.7038 14.5955L16.0923 16.0445C16.1093 16.1079 16.1136 16.1741 16.1051 16.2392C16.0965 16.3043 16.0752 16.3671 16.0424 16.424C16.0096 16.4809 15.9659 16.5307 15.9138 16.5707C15.8617 16.6107 15.8022 16.64 15.7388 16.657L14.7728 16.916C14.7093 16.933 14.6431 16.9373 14.578 16.9287C14.5129 16.9202 14.45 16.8988 14.3932 16.8659C14.3363 16.8331 14.2864 16.7893 14.2465 16.7371C14.2065 16.685 14.1772 16.6255 14.1603 16.562L13.7723 15.1135ZM2.90728 14.242C2.84382 14.2249 2.77761 14.2205 2.71244 14.229C2.64727 14.2375 2.58442 14.2588 2.52749 14.2917C2.47056 14.3245 2.42065 14.3682 2.38064 14.4204C2.34062 14.4725 2.31127 14.532 2.29428 14.5955L1.90628 16.044C1.88926 16.1074 1.88491 16.1736 1.89347 16.2387C1.90203 16.3038 1.92333 16.3666 1.95615 16.4235C1.98898 16.4804 2.03269 16.5302 2.08479 16.5702C2.13688 16.6102 2.19635 16.6395 2.25978 16.6565L3.22578 16.9155C3.28921 16.9325 3.35537 16.9369 3.42048 16.9283C3.48559 16.9198 3.54838 16.8985 3.60525 16.8656C3.66213 16.8328 3.71198 16.7891 3.75197 16.737C3.79195 16.6849 3.82128 16.6254 3.83828 16.562L4.22628 15.113C4.24337 15.0495 4.24778 14.9833 4.23926 14.9182C4.23073 14.853 4.20945 14.7901 4.17662 14.7332C4.14378 14.6763 4.10005 14.6264 4.04791 14.5864C3.99578 14.5463 3.93627 14.517 3.87278 14.5L2.90728 14.242ZM9.50028 16.5C9.50028 16.6326 9.4476 16.7598 9.35383 16.8536C9.26006 16.9473 9.13289 17 9.00028 17C8.86767 17 8.74049 16.9473 8.64672 16.8536C8.55296 16.7598 8.50028 16.6326 8.50028 16.5C8.50028 16.3674 8.55296 16.2402 8.64672 16.1464C8.74049 16.0527 8.86767 16 9.00028 16C9.13289 16 9.26006 16.0527 9.35383 16.1464C9.4476 16.2402 9.50028 16.3674 9.50028 16.5Z" fill="#FFFFFF"/>
</svg>
