<svg width="18" height="19" viewBox="0 0 18 19" fill="none" xmlns="http://www.w3.org/2000/svg">
<path d="M13.371 14.587L12.716 13.931C12.6293 13.845 12.527 13.802 12.409 13.802C12.2903 13.802 12.188 13.845 12.102 13.931C12.016 14.0163 11.973 14.1173 11.973 14.234C11.973 14.3507 12.016 14.452 12.102 14.538L12.962 15.398C13.086 15.5227 13.2257 15.585 13.381 15.585C13.5363 15.585 13.676 15.5227 13.8 15.398L15.898 13.331C15.984 13.245 16.0303 13.146 16.037 13.034C16.0437 12.9213 15.9973 12.8157 15.898 12.717C15.812 12.631 15.7067 12.588 15.582 12.588C15.4573 12.588 15.3517 12.6313 15.265 12.718L13.371 14.587ZM3.27 4.73H12.732C12.874 4.73 12.9927 4.68233 13.088 4.587C13.1833 4.49167 13.2313 4.37267 13.232 4.23C13.232 4.07467 13.184 3.95267 13.088 3.864C12.9927 3.77467 12.874 3.73 12.732 3.73H3.269C3.127 3.73 3.008 3.77767 2.912 3.873C2.816 3.96833 2.76833 4.08733 2.769 4.23C2.76967 4.37267 2.81733 4.49167 2.912 4.587C3.00667 4.68233 3.12667 4.73 3.27 4.73ZM14 18.116C12.886 18.116 11.941 17.7277 11.165 16.951C10.3883 16.175 10 15.23 10 14.116C10 13.002 10.3883 12.0567 11.165 11.28C11.9417 10.5033 12.8867 10.1153 14 10.116C15.1133 10.1167 16.0587 10.5047 16.836 11.28C17.6133 12.0553 18.0013 13.0007 18 14.116C18 15.2293 17.612 16.1743 16.836 16.951C16.0587 17.7277 15.1133 18.116 14 18.116ZM0 1.616C0 1.168 0.157333 0.786667 0.472 0.472C0.786667 0.157333 1.168 0 1.616 0H14.385C14.8317 0 15.2127 0.157333 15.528 0.472C15.8427 0.786667 16 1.168 16 1.616V6.933C16 7.075 15.9523 7.194 15.857 7.29C15.7617 7.386 15.6427 7.43367 15.5 7.433C15.3573 7.43233 15.2383 7.38467 15.143 7.29C15.0477 7.19533 15 7.07633 15 6.933V1.616C15 1.462 14.936 1.32067 14.808 1.192C14.68 1.06333 14.5387 0.999333 14.384 1H1.616C1.462 1 1.32067 1.064 1.192 1.192C1.06333 1.32 0.999333 1.46133 1 1.616V15.05H7.344C7.36467 15.1847 7.389 15.3193 7.417 15.454C7.44567 15.5887 7.48233 15.7213 7.527 15.852C7.57167 15.9713 7.54167 16.069 7.437 16.145C7.33167 16.2217 7.23167 16.225 7.137 16.155L6.888 15.985C6.814 15.9363 6.736 15.912 6.654 15.912C6.572 15.912 6.49367 15.9363 6.419 15.985L5.542 16.592C5.468 16.6413 5.39 16.666 5.308 16.666C5.226 16.666 5.14767 16.6413 5.073 16.592L4.196 15.985C4.12133 15.9363 4.043 15.912 3.961 15.912C3.879 15.912 3.801 15.9363 3.727 15.985L2.85 16.592C2.776 16.6413 2.698 16.666 2.616 16.666C2.534 16.666 2.45567 16.6413 2.381 16.592L1.504 15.985C1.42933 15.9363 1.351 15.912 1.269 15.912C1.187 15.912 1.109 15.9363 1.035 15.985L0 16.788V1.616ZM3.27 12.269H7.144C7.28667 12.269 7.40567 12.2213 7.501 12.126C7.59633 12.0307 7.644 11.9117 7.644 11.769C7.644 11.6263 7.59633 11.5077 7.501 11.413C7.40567 11.3183 7.28667 11.2703 7.144 11.269H3.27C3.128 11.269 3.009 11.317 2.913 11.413C2.817 11.509 2.76933 11.6277 2.77 11.769C2.77067 11.9103 2.81833 12.0293 2.913 12.126C3.00767 12.2227 3.12667 12.2703 3.27 12.269ZM3.27 8.5H10.474C10.616 8.5 10.735 8.45233 10.831 8.357C10.927 8.26167 10.9747 8.14267 10.974 8C10.9733 7.85733 10.9257 7.73833 10.831 7.643C10.7363 7.54767 10.6173 7.5 10.474 7.5H3.269C3.127 7.5 3.008 7.54767 2.912 7.643C2.816 7.73833 2.76867 7.85733 2.77 8C2.77133 8.14267 2.819 8.26167 2.913 8.357C3.007 8.45233 3.126 8.5 3.27 8.5Z" fill="#FFFFFF"/>
</svg>
