<svg width="18" height="16" viewBox="0 0 18 16" fill="none" xmlns="http://www.w3.org/2000/svg">
<path d="M9 9.167L10.67 10.183C10.814 10.2737 10.9587 10.2663 11.104 10.161C11.2487 10.055 11.3027 9.913 11.266 9.735L10.823 7.848L12.293 6.585C12.433 6.46033 12.4763 6.31633 12.423 6.153C12.3697 5.98967 12.2517 5.89967 12.069 5.883L10.133 5.708L9.373 3.927C9.30233 3.765 9.178 3.684 9 3.684C8.822 3.684 8.69767 3.765 8.627 3.927L7.867 5.707L5.931 5.883C5.749 5.89967 5.631 5.98967 5.577 6.153C5.523 6.31633 5.56633 6.46033 5.707 6.585L7.177 7.848L6.735 9.734C6.69767 9.91267 6.75133 10.055 6.896 10.161C7.04067 10.267 7.18567 10.2743 7.331 10.183L9 9.167ZM3.077 14L1.373 15.704C1.12033 15.9567 0.828333 16.0147 0.497 15.878C0.165667 15.7413 0 15.493 0 15.133V1.616C0 1.15533 0.154333 0.771 0.463 0.463C0.771667 0.155 1.156 0.000666667 1.616 0H16.385C16.845 0 17.2293 0.154333 17.538 0.463C17.8467 0.771667 18.0007 1.156 18 1.616V12.385C18 12.845 17.846 13.2293 17.538 13.538C17.23 13.8467 16.8457 14.0007 16.385 14H3.077ZM2.65 13H16.385C16.5383 13 16.6793 12.936 16.808 12.808C16.9367 12.68 17.0007 12.539 17 12.385V1.615C17 1.46167 16.936 1.32067 16.808 1.192C16.68 1.06333 16.539 0.999333 16.385 1H1.615C1.46167 1 1.32067 1.064 1.192 1.192C1.06333 1.32 0.999333 1.461 1 1.615V14.645L2.65 13Z" fill="#FFFFFF"/>
</svg>
