<svg width="24" height="20" viewBox="0 0 24 20" fill="none" xmlns="http://www.w3.org/2000/svg">
<path d="M3.49993 5.99983C3.50013 5.05174 3.7454 4.11981 4.21195 3.29446C4.67849 2.46911 5.35047 1.77838 6.16267 1.2893C6.97486 0.80021 7.89969 0.529382 8.84741 0.503092C9.79514 0.476802 10.7336 0.695943 11.5716 1.13925C12.4097 1.58256 13.1189 2.23497 13.6305 3.03319C14.1421 3.8314 14.4386 4.74831 14.4914 5.69492C14.5442 6.64154 14.3513 7.58572 13.9316 8.43584C13.5119 9.28596 12.8795 10.0131 12.0959 10.5468C13.7834 11.1658 15.2471 12.2755 16.2986 13.7333C17.35 15.1911 17.9412 16.9302 17.9959 18.7268C17.9936 18.9205 17.9165 19.1058 17.7808 19.244C17.645 19.3823 17.4611 19.4627 17.2675 19.4685C17.0739 19.4743 16.8855 19.405 16.7417 19.2752C16.5979 19.1454 16.5099 18.965 16.4959 18.7718C16.4364 16.8233 15.6205 14.9745 14.2211 13.6172C12.8217 12.26 10.9489 11.5009 8.99943 11.5009C7.04997 11.5009 5.17712 12.26 3.77776 13.6172C2.37839 14.9745 1.56248 16.8233 1.50293 18.7718C1.49292 18.9677 1.40661 19.1518 1.26249 19.2848C1.11837 19.4177 0.927906 19.489 0.731901 19.4832C0.535896 19.4775 0.34994 19.3952 0.213869 19.254C0.0777983 19.1128 0.00243635 18.9239 0.00392798 18.7278C0.0584793 16.9311 0.649535 15.1917 1.70101 13.7337C2.75249 12.2758 4.21627 11.1658 5.90393 10.5468C5.16301 10.0422 4.55666 9.36415 4.13766 8.57166C3.71867 7.77916 3.49974 6.89627 3.49993 5.99983ZM8.99993 1.99983C7.93906 1.99983 6.92165 2.42126 6.1715 3.1714C5.42136 3.92155 4.99993 4.93896 4.99993 5.99983C4.99993 7.0607 5.42136 8.07811 6.1715 8.82826C6.92165 9.5784 7.93906 9.99983 8.99993 9.99983C10.0608 9.99983 11.0782 9.5784 11.8284 8.82826C12.5785 8.07811 12.9999 7.0607 12.9999 5.99983C12.9999 4.93896 12.5785 3.92155 11.8284 3.1714C11.0782 2.42126 10.0608 1.99983 8.99993 1.99983ZM17.2899 5.99983C17.1426 5.99983 16.9979 6.00983 16.8559 6.02983C16.7568 6.04758 16.6551 6.04518 16.5569 6.02278C16.4587 6.00037 16.366 5.95842 16.2844 5.89942C16.2028 5.84042 16.1339 5.76558 16.0818 5.67937C16.0297 5.59316 15.9955 5.49734 15.9813 5.39764C15.967 5.29793 15.973 5.19638 15.9989 5.09903C16.0247 5.00169 16.0699 4.91055 16.1318 4.83106C16.1936 4.75156 16.2708 4.68534 16.3588 4.63633C16.4468 4.58733 16.5438 4.55655 16.6439 4.54583C17.6385 4.40203 18.6527 4.59303 19.5268 5.08875C20.4009 5.58448 21.0854 6.3568 21.4725 7.28416C21.8596 8.21152 21.9274 9.24127 21.6652 10.2114C21.4029 11.1815 20.8256 12.0368 20.0239 12.6428C21.2023 13.1705 22.2028 14.0278 22.9048 15.1115C23.6068 16.1951 23.9802 17.4587 23.9799 18.7498C23.9799 18.9487 23.9009 19.1395 23.7603 19.2802C23.6196 19.4208 23.4288 19.4998 23.2299 19.4998C23.031 19.4998 22.8403 19.4208 22.6996 19.2802C22.5589 19.1395 22.4799 18.9487 22.4799 18.7498C22.4803 17.6339 22.1209 16.5475 21.4552 15.6519C20.7894 14.7562 19.8527 14.0991 18.7839 13.7778L18.2499 13.6178V11.9418L18.6599 11.7328C19.2677 11.425 19.754 10.9213 20.0402 10.3031C20.3265 9.68486 20.3961 8.98821 20.2378 8.32559C20.0794 7.66297 19.7024 7.07304 19.1675 6.65106C18.6327 6.22907 17.9712 5.99965 17.2899 5.99983Z" fill="#FFFFFF"/>
</svg>
